<mxfile host="Electron" modified="2023-05-22T17:24:06.888Z" agent="Mozilla/5.0 (Windows NT 10.0; Win64; x64) AppleWebKit/537.36 (KHTML, like Gecko) draw.io/21.2.8 Chrome/112.0.5615.165 Electron/24.2.0 Safari/537.36" etag="zWPlVE8y6r1dbwSwzkYr" version="21.2.8" type="device">
  <diagram id="prtHgNgQTEPvFCAcTncT" name="Page-1">
    <mxGraphModel dx="2097" dy="1286" grid="1" gridSize="10" guides="1" tooltips="1" connect="1" arrows="1" fold="1" page="1" pageScale="1" pageWidth="827" pageHeight="1169" math="0" shadow="0">
      <root>
        <mxCell id="0" />
        <mxCell id="1" parent="0" />
        <mxCell id="dNxyNK7c78bLwvsdeMH5-19" value="" style="swimlane;html=1;childLayout=stackLayout;resizeParent=1;resizeParentMax=0;horizontal=0;startSize=20;horizontalStack=0;strokeWidth=1;fontStyle=1;spacing=1;fillColor=none;container=1;" parent="1" vertex="1">
          <mxGeometry x="3" width="590" height="650" as="geometry" />
        </mxCell>
        <mxCell id="a2iPl4jCiyBmBNZjARmk-16" value="assembler service" style="swimlane;html=1;startSize=20;fontStyle=1;collapsible=0;horizontal=0;swimlaneLine=1;swimlaneFillColor=#ffffff;strokeWidth=1;whiteSpace=wrap;spacing=1;fillColor=none;" parent="dNxyNK7c78bLwvsdeMH5-19" vertex="1">
          <mxGeometry x="20" width="570" height="120" as="geometry" />
        </mxCell>
        <mxCell id="gOrIEBcR2SbTjTZqUZHp-36" style="edgeStyle=orthogonalEdgeStyle;rounded=0;orthogonalLoop=1;jettySize=auto;html=1;exitX=1;exitY=0.5;exitDx=0;exitDy=0;exitPerimeter=0;entryX=0;entryY=0.5;entryDx=0;entryDy=0;entryPerimeter=0;fillColor=none;" parent="a2iPl4jCiyBmBNZjARmk-16" source="gOrIEBcR2SbTjTZqUZHp-17" target="gOrIEBcR2SbTjTZqUZHp-26" edge="1">
          <mxGeometry relative="1" as="geometry" />
        </mxCell>
        <mxCell id="gOrIEBcR2SbTjTZqUZHp-30" value="layout to assemblies request" style="points=[[0.145,0.145,0],[0.5,0,0],[0.855,0.145,0],[1,0.5,0],[0.855,0.855,0],[0.5,1,0],[0.145,0.855,0],[0,0.5,0]];shape=mxgraph.bpmn.event;html=1;verticalLabelPosition=bottom;labelBackgroundColor=#ffffff;verticalAlign=top;align=center;perimeter=ellipsePerimeter;outlineConnect=0;aspect=fixed;outline=catching;symbol=message;whiteSpace=wrap;spacing=1;fillColor=none;" parent="a2iPl4jCiyBmBNZjARmk-16" vertex="1">
          <mxGeometry x="47" y="10" width="50" height="50" as="geometry" />
        </mxCell>
        <mxCell id="gOrIEBcR2SbTjTZqUZHp-35" style="edgeStyle=orthogonalEdgeStyle;rounded=0;orthogonalLoop=1;jettySize=auto;html=1;exitX=1;exitY=0.5;exitDx=0;exitDy=0;exitPerimeter=0;entryX=0;entryY=0.5;entryDx=0;entryDy=0;entryPerimeter=0;fillColor=none;" parent="a2iPl4jCiyBmBNZjARmk-16" source="gOrIEBcR2SbTjTZqUZHp-30" target="gOrIEBcR2SbTjTZqUZHp-17" edge="1">
          <mxGeometry relative="1" as="geometry" />
        </mxCell>
        <mxCell id="gOrIEBcR2SbTjTZqUZHp-17" value="layout to assemblies" style="points=[[0.25,0,0],[0.5,0,0],[0.75,0,0],[1,0.25,0],[1,0.5,0],[1,0.75,0],[0.75,1,0],[0.5,1,0],[0.25,1,0],[0,0.75,0],[0,0.5,0],[0,0.25,0]];shape=mxgraph.bpmn.task;whiteSpace=wrap;rectStyle=rounded;size=10;html=1;container=1;expand=0;collapsible=0;taskMarker=service;spacing=1;fillColor=none;align=right;isLoopSub=1;verticalAlign=top;" parent="a2iPl4jCiyBmBNZjARmk-16" vertex="1">
          <mxGeometry x="110" y="9" width="73" height="52" as="geometry" />
        </mxCell>
        <mxCell id="gOrIEBcR2SbTjTZqUZHp-26" value="layout to assemblies response" style="points=[[0.145,0.145,0],[0.5,0,0],[0.855,0.145,0],[1,0.5,0],[0.855,0.855,0],[0.5,1,0],[0.145,0.855,0],[0,0.5,0]];shape=mxgraph.bpmn.event;html=1;verticalLabelPosition=bottom;labelBackgroundColor=#ffffff;verticalAlign=top;align=center;perimeter=ellipsePerimeter;outlineConnect=0;aspect=fixed;outline=throwing;symbol=message;whiteSpace=wrap;spacing=1;fillColor=none;" parent="a2iPl4jCiyBmBNZjARmk-16" vertex="1">
          <mxGeometry x="196" y="10" width="50" height="50" as="geometry" />
        </mxCell>
        <mxCell id="oAbuL4uF9CSUd4GpwNxf-181" value="compute design assembly" style="points=[[0.25,0,0],[0.5,0,0],[0.75,0,0],[1,0.25,0],[1,0.5,0],[1,0.75,0],[0.75,1,0],[0.5,1,0],[0.25,1,0],[0,0.75,0],[0,0.5,0],[0,0.25,0]];shape=mxgraph.bpmn.task;whiteSpace=wrap;rectStyle=rounded;size=10;html=1;container=1;expand=0;collapsible=0;taskMarker=service;isLoopSub=1;align=right;verticalAlign=top;" parent="a2iPl4jCiyBmBNZjARmk-16" vertex="1">
          <mxGeometry x="267" y="11" width="68" height="70" as="geometry" />
        </mxCell>
        <mxCell id="dNxyNK7c78bLwvsdeMH5-20" value="layouter service" style="swimlane;html=1;startSize=20;horizontal=0;strokeWidth=1;fontStyle=1;spacing=1;fillColor=none;" parent="dNxyNK7c78bLwvsdeMH5-19" vertex="1">
          <mxGeometry x="20" y="120" width="570" height="130" as="geometry" />
        </mxCell>
        <mxCell id="gOrIEBcR2SbTjTZqUZHp-73" value="layout to assemblies request" style="points=[[0.145,0.145,0],[0.5,0,0],[0.855,0.145,0],[1,0.5,0],[0.855,0.855,0],[0.5,1,0],[0.145,0.855,0],[0,0.5,0]];shape=mxgraph.bpmn.event;html=1;verticalLabelPosition=bottom;labelBackgroundColor=#ffffff;verticalAlign=top;align=center;perimeter=ellipsePerimeter;outlineConnect=0;aspect=fixed;outline=throwing;symbol=message;whiteSpace=wrap;spacing=1;fillColor=none;" parent="dNxyNK7c78bLwvsdeMH5-20" vertex="1">
          <mxGeometry x="125" y="15.560000000000002" width="50" height="50" as="geometry" />
        </mxCell>
        <mxCell id="gOrIEBcR2SbTjTZqUZHp-79" value="layout to assemblies response" style="points=[[0.145,0.145,0],[0.5,0,0],[0.855,0.145,0],[1,0.5,0],[0.855,0.855,0],[0.5,1,0],[0.145,0.855,0],[0,0.5,0]];shape=mxgraph.bpmn.event;html=1;verticalLabelPosition=bottom;labelBackgroundColor=#ffffff;verticalAlign=top;align=center;perimeter=ellipsePerimeter;outlineConnect=0;aspect=fixed;outline=catching;symbol=message;whiteSpace=wrap;spacing=1;fillColor=none;" parent="dNxyNK7c78bLwvsdeMH5-20" vertex="1">
          <mxGeometry x="186" y="15" width="50" height="50" as="geometry" />
        </mxCell>
        <mxCell id="oAbuL4uF9CSUd4GpwNxf-183" value="" style="points=[[0.25,0,0],[0.5,0,0],[0.75,0,0],[1,0.25,0],[1,0.5,0],[1,0.75,0],[0.75,1,0],[0.5,1,0],[0.25,1,0],[0,0.75,0],[0,0.5,0],[0,0.25,0]];shape=mxgraph.bpmn.task;whiteSpace=wrap;rectStyle=rounded;size=10;html=1;container=1;expand=0;collapsible=0;taskMarker=service;isLoopSub=0;isLoopMultiSeq=1;bpmnShapeType=task;isLoopStandard=0;recursiveResize=0;" parent="dNxyNK7c78bLwvsdeMH5-20" vertex="1">
          <mxGeometry x="248" y="3" width="126" height="110" as="geometry" />
        </mxCell>
        <mxCell id="oAbuL4uF9CSUd4GpwNxf-184" value="assembly design request" style="points=[[0.145,0.145,0],[0.5,0,0],[0.855,0.145,0],[1,0.5,0],[0.855,0.855,0],[0.5,1,0],[0.145,0.855,0],[0,0.5,0]];shape=mxgraph.bpmn.event;html=1;verticalLabelPosition=bottom;labelBackgroundColor=none;verticalAlign=top;align=center;perimeter=ellipsePerimeter;outlineConnect=0;aspect=fixed;outline=throwing;symbol=message;whiteSpace=wrap;spacing=1;fillColor=none;" parent="oAbuL4uF9CSUd4GpwNxf-183" vertex="1">
          <mxGeometry x="10" y="12" width="50" height="50" as="geometry" />
        </mxCell>
        <mxCell id="oAbuL4uF9CSUd4GpwNxf-185" value="assembly design response" style="points=[[0.145,0.145,0],[0.5,0,0],[0.855,0.145,0],[1,0.5,0],[0.855,0.855,0],[0.5,1,0],[0.145,0.855,0],[0,0.5,0]];shape=mxgraph.bpmn.event;html=1;verticalLabelPosition=bottom;labelBackgroundColor=none;verticalAlign=top;align=center;perimeter=ellipsePerimeter;outlineConnect=0;aspect=fixed;outline=catching;symbol=message;whiteSpace=wrap;spacing=1;fillColor=none;" parent="oAbuL4uF9CSUd4GpwNxf-183" vertex="1">
          <mxGeometry x="72" y="12" width="50" height="50" as="geometry" />
        </mxCell>
        <mxCell id="oAbuL4uF9CSUd4GpwNxf-186" style="edgeStyle=orthogonalEdgeStyle;rounded=0;orthogonalLoop=1;jettySize=auto;html=1;exitX=1;exitY=0.5;exitDx=0;exitDy=0;exitPerimeter=0;entryX=0;entryY=0.5;entryDx=0;entryDy=0;entryPerimeter=0;fillColor=none;" parent="oAbuL4uF9CSUd4GpwNxf-183" source="oAbuL4uF9CSUd4GpwNxf-184" target="oAbuL4uF9CSUd4GpwNxf-185" edge="1">
          <mxGeometry relative="1" as="geometry" />
        </mxCell>
        <mxCell id="gOrIEBcR2SbTjTZqUZHp-82" style="edgeStyle=orthogonalEdgeStyle;rounded=0;orthogonalLoop=1;jettySize=auto;html=1;exitX=1;exitY=0.5;exitDx=0;exitDy=0;exitPerimeter=0;fillColor=none;" parent="dNxyNK7c78bLwvsdeMH5-20" source="gOrIEBcR2SbTjTZqUZHp-79" target="oAbuL4uF9CSUd4GpwNxf-184" edge="1">
          <mxGeometry relative="1" as="geometry">
            <mxPoint x="268.9999999999998" y="40.7800000000002" as="targetPoint" />
          </mxGeometry>
        </mxCell>
        <mxCell id="oAbuL4uF9CSUd4GpwNxf-190" value="layout design response" style="points=[[0.145,0.145,0],[0.5,0,0],[0.855,0.145,0],[1,0.5,0],[0.855,0.855,0],[0.5,1,0],[0.145,0.855,0],[0,0.5,0]];shape=mxgraph.bpmn.event;html=1;verticalLabelPosition=bottom;labelBackgroundColor=#ffffff;verticalAlign=top;align=center;perimeter=ellipsePerimeter;outlineConnect=0;aspect=fixed;outline=throwing;symbol=message;whiteSpace=wrap;spacing=1;fillColor=none;" parent="dNxyNK7c78bLwvsdeMH5-20" vertex="1">
          <mxGeometry x="386" y="15" width="50" height="50" as="geometry" />
        </mxCell>
        <mxCell id="oAbuL4uF9CSUd4GpwNxf-191" style="edgeStyle=orthogonalEdgeStyle;rounded=0;orthogonalLoop=1;jettySize=auto;html=1;exitX=1;exitY=0.5;exitDx=0;exitDy=0;exitPerimeter=0;entryX=0;entryY=0.5;entryDx=0;entryDy=0;entryPerimeter=0;" parent="dNxyNK7c78bLwvsdeMH5-20" source="oAbuL4uF9CSUd4GpwNxf-185" target="oAbuL4uF9CSUd4GpwNxf-190" edge="1">
          <mxGeometry relative="1" as="geometry" />
        </mxCell>
        <mxCell id="gOrIEBcR2SbTjTZqUZHp-29" value="transformer service" style="swimlane;html=1;startSize=20;fontStyle=1;collapsible=0;horizontal=0;swimlaneLine=1;swimlaneFillColor=#ffffff;strokeWidth=1;whiteSpace=wrap;spacing=1;fillColor=none;" parent="dNxyNK7c78bLwvsdeMH5-19" vertex="1">
          <mxGeometry x="20" y="250" width="570" height="120" as="geometry" />
        </mxCell>
        <mxCell id="oAbuL4uF9CSUd4GpwNxf-32" value="" style="points=[[0.25,0,0],[0.5,0,0],[0.75,0,0],[1,0.25,0],[1,0.5,0],[1,0.75,0],[0.75,1,0],[0.5,1,0],[0.25,1,0],[0,0.75,0],[0,0.5,0],[0,0.25,0]];shape=mxgraph.bpmn.task;whiteSpace=wrap;rectStyle=rounded;size=10;html=1;container=1;expand=0;collapsible=0;taskMarker=service;isLoopSub=0;isLoopMultiSeq=1;bpmnShapeType=task;isLoopStandard=0;recursiveResize=0;" parent="gOrIEBcR2SbTjTZqUZHp-29" vertex="1">
          <mxGeometry x="117" y="19.5" width="93" height="63.5" as="geometry" />
        </mxCell>
        <mxCell id="oAbuL4uF9CSUd4GpwNxf-36" style="edgeStyle=orthogonalEdgeStyle;rounded=0;orthogonalLoop=1;jettySize=auto;html=1;exitX=1;exitY=0.5;exitDx=0;exitDy=0;exitPerimeter=0;entryX=0;entryY=0.5;entryDx=0;entryDy=0;entryPerimeter=0;fillColor=none;" parent="oAbuL4uF9CSUd4GpwNxf-32" target="oAbuL4uF9CSUd4GpwNxf-38" edge="1">
          <mxGeometry relative="1" as="geometry">
            <mxPoint x="66" y="35" as="sourcePoint" />
          </mxGeometry>
        </mxCell>
        <mxCell id="0XzqlYwr_3qjhGJwZqzh-23" value="solve script" style="points=[[0.25,0,0],[0.5,0,0],[0.75,0,0],[1,0.25,0],[1,0.5,0],[1,0.75,0],[0.75,1,0],[0.5,1,0],[0.25,1,0],[0,0.75,0],[0,0.5,0],[0,0.25,0]];shape=mxgraph.bpmn.task;whiteSpace=wrap;rectStyle=rounded;size=10;html=1;container=1;expand=0;collapsible=0;bpmnShapeType=call;taskMarker=service;align=right;verticalAlign=middle;spacingRight=2;spacingBottom=2;" vertex="1" parent="oAbuL4uF9CSUd4GpwNxf-32">
          <mxGeometry x="23" y="3.5" width="52" height="33" as="geometry" />
        </mxCell>
        <mxCell id="0XzqlYwr_3qjhGJwZqzh-24" value="transformation" style="html=1;shape=mxgraph.flowchart.annotation_2;align=left;labelPosition=right;" vertex="1" parent="oAbuL4uF9CSUd4GpwNxf-32">
          <mxGeometry x="3" y="41.5" width="10" height="12" as="geometry" />
        </mxCell>
        <mxCell id="0XzqlYwr_3qjhGJwZqzh-25" value="" style="edgeStyle=elbowEdgeStyle;fontSize=12;html=1;endFill=0;startFill=0;endSize=6;startSize=6;dashed=1;dashPattern=1 4;endArrow=none;startArrow=none;rounded=0;exitX=0;exitY=0.75;exitDx=0;exitDy=0;exitPerimeter=0;entryX=0;entryY=0.5;entryDx=0;entryDy=0;entryPerimeter=0;" edge="1" parent="oAbuL4uF9CSUd4GpwNxf-32" source="0XzqlYwr_3qjhGJwZqzh-23" target="0XzqlYwr_3qjhGJwZqzh-24">
          <mxGeometry width="160" relative="1" as="geometry">
            <mxPoint x="402" y="116.5" as="sourcePoint" />
            <mxPoint x="407" y="127.5" as="targetPoint" />
            <Array as="points">
              <mxPoint x="3" y="44" />
              <mxPoint x="13" y="46.5" />
              <mxPoint x="49" y="56.5" />
            </Array>
          </mxGeometry>
        </mxCell>
        <mxCell id="oAbuL4uF9CSUd4GpwNxf-63" style="edgeStyle=orthogonalEdgeStyle;rounded=0;orthogonalLoop=1;jettySize=auto;html=1;exitX=1;exitY=0.5;exitDx=0;exitDy=0;exitPerimeter=0;entryX=0;entryY=0.5;entryDx=0;entryDy=0;entryPerimeter=0;" parent="gOrIEBcR2SbTjTZqUZHp-29" source="oAbuL4uF9CSUd4GpwNxf-61" target="0XzqlYwr_3qjhGJwZqzh-23" edge="1">
          <mxGeometry relative="1" as="geometry">
            <Array as="points">
              <mxPoint x="105" y="40" />
              <mxPoint x="140" y="40" />
            </Array>
            <mxPoint x="137" y="41.5" as="targetPoint" />
          </mxGeometry>
        </mxCell>
        <mxCell id="oAbuL4uF9CSUd4GpwNxf-61" value="transform sequence request" style="points=[[0.145,0.145,0],[0.5,0,0],[0.855,0.145,0],[1,0.5,0],[0.855,0.855,0],[0.5,1,0],[0.145,0.855,0],[0,0.5,0]];shape=mxgraph.bpmn.event;html=1;verticalLabelPosition=bottom;labelBackgroundColor=#ffffff;verticalAlign=top;align=center;perimeter=ellipsePerimeter;outlineConnect=0;aspect=fixed;outline=catching;symbol=message;whiteSpace=wrap;spacing=1;fillColor=none;" parent="gOrIEBcR2SbTjTZqUZHp-29" vertex="1">
          <mxGeometry x="54.99999999999994" y="16.5" width="50" height="50" as="geometry" />
        </mxCell>
        <mxCell id="oAbuL4uF9CSUd4GpwNxf-67" value="transform sequence response" style="points=[[0.145,0.145,0],[0.5,0,0],[0.855,0.145,0],[1,0.5,0],[0.855,0.855,0],[0.5,1,0],[0.145,0.855,0],[0,0.5,0]];shape=mxgraph.bpmn.event;html=1;verticalLabelPosition=bottom;labelBackgroundColor=#ffffff;verticalAlign=top;align=center;perimeter=ellipsePerimeter;outlineConnect=0;aspect=fixed;outline=throwing;symbol=message;whiteSpace=wrap;spacing=1;fillColor=none;" parent="gOrIEBcR2SbTjTZqUZHp-29" vertex="1">
          <mxGeometry x="384" y="14.5" width="50" height="50" as="geometry" />
        </mxCell>
        <mxCell id="oAbuL4uF9CSUd4GpwNxf-42" value="first transform on initial layout&lt;br&gt;foreach decision in sequence&lt;br&gt;output of previous transform&lt;br&gt;is input of next transform" style="html=1;shape=mxgraph.flowchart.annotation_2;align=left;labelPosition=right;" parent="gOrIEBcR2SbTjTZqUZHp-29" vertex="1">
          <mxGeometry x="210" y="61" width="6" height="55" as="geometry" />
        </mxCell>
        <mxCell id="oAbuL4uF9CSUd4GpwNxf-43" value="" style="edgeStyle=elbowEdgeStyle;fontSize=12;html=1;endFill=0;startFill=0;endSize=6;startSize=6;dashed=1;dashPattern=1 4;endArrow=none;startArrow=none;rounded=0;entryX=0.75;entryY=1;entryDx=0;entryDy=0;entryPerimeter=0;exitX=0;exitY=0.5;exitDx=0;exitDy=0;exitPerimeter=0;" parent="gOrIEBcR2SbTjTZqUZHp-29" source="oAbuL4uF9CSUd4GpwNxf-42" target="oAbuL4uF9CSUd4GpwNxf-32" edge="1">
          <mxGeometry width="160" relative="1" as="geometry">
            <mxPoint x="420" y="410" as="sourcePoint" />
            <mxPoint x="580" y="410" as="targetPoint" />
            <Array as="points">
              <mxPoint x="187" y="90" />
            </Array>
          </mxGeometry>
        </mxCell>
        <mxCell id="oAbuL4uF9CSUd4GpwNxf-138" style="edgeStyle=orthogonalEdgeStyle;rounded=0;orthogonalLoop=1;jettySize=auto;html=1;exitX=1;exitY=0.5;exitDx=0;exitDy=0;exitPerimeter=0;entryX=0;entryY=0.5;entryDx=0;entryDy=0;entryPerimeter=0;" parent="gOrIEBcR2SbTjTZqUZHp-29" source="0XzqlYwr_3qjhGJwZqzh-23" target="oAbuL4uF9CSUd4GpwNxf-67" edge="1">
          <mxGeometry relative="1" as="geometry">
            <mxPoint x="320" y="46.5" as="targetPoint" />
            <mxPoint x="249" y="41.5" as="sourcePoint" />
          </mxGeometry>
        </mxCell>
        <mxCell id="dNxyNK7c78bLwvsdeMH5-21" value="designer service" style="swimlane;html=1;startSize=20;horizontal=0;strokeWidth=1;fontStyle=1;spacing=1;fillColor=none;" parent="dNxyNK7c78bLwvsdeMH5-19" vertex="1">
          <mxGeometry x="20" y="370" width="570" height="160" as="geometry" />
        </mxCell>
        <mxCell id="oAbuL4uF9CSUd4GpwNxf-5" style="edgeStyle=orthogonalEdgeStyle;rounded=0;orthogonalLoop=1;jettySize=auto;html=1;exitX=1;exitY=0.5;exitDx=0;exitDy=0;exitPerimeter=0;entryX=0;entryY=0.5;entryDx=0;entryDy=0;entryPerimeter=0;fillColor=none;" parent="dNxyNK7c78bLwvsdeMH5-21" source="gOrIEBcR2SbTjTZqUZHp-22" target="oAbuL4uF9CSUd4GpwNxf-3" edge="1">
          <mxGeometry relative="1" as="geometry" />
        </mxCell>
        <mxCell id="gOrIEBcR2SbTjTZqUZHp-22" value="design request" style="points=[[0.145,0.145,0],[0.5,0,0],[0.855,0.145,0],[1,0.5,0],[0.855,0.855,0],[0.5,1,0],[0.145,0.855,0],[0,0.5,0]];shape=mxgraph.bpmn.event;html=1;verticalLabelPosition=bottom;labelBackgroundColor=#ffffff;verticalAlign=top;align=center;perimeter=ellipsePerimeter;outlineConnect=0;aspect=fixed;outline=catching;symbol=message;whiteSpace=wrap;spacing=1;fillColor=none;" parent="dNxyNK7c78bLwvsdeMH5-21" vertex="1">
          <mxGeometry x="46" y="43" width="50" height="50" as="geometry" />
        </mxCell>
        <mxCell id="oAbuL4uF9CSUd4GpwNxf-20" style="edgeStyle=orthogonalEdgeStyle;rounded=0;orthogonalLoop=1;jettySize=auto;html=1;exitX=1;exitY=0.5;exitDx=0;exitDy=0;exitPerimeter=0;entryX=0;entryY=0.5;entryDx=0;entryDy=0;entryPerimeter=0;fillColor=none;labelBackgroundColor=none;" parent="dNxyNK7c78bLwvsdeMH5-21" source="oAbuL4uF9CSUd4GpwNxf-3" target="0XzqlYwr_3qjhGJwZqzh-64" edge="1">
          <mxGeometry relative="1" as="geometry">
            <mxPoint x="190" y="68" as="targetPoint" />
          </mxGeometry>
        </mxCell>
        <mxCell id="oAbuL4uF9CSUd4GpwNxf-21" value="yes" style="edgeLabel;html=1;align=center;verticalAlign=middle;resizable=0;points=[];fillColor=none;labelBackgroundColor=none;" parent="oAbuL4uF9CSUd4GpwNxf-20" vertex="1" connectable="0">
          <mxGeometry x="-0.354" relative="1" as="geometry">
            <mxPoint x="1" y="-10" as="offset" />
          </mxGeometry>
        </mxCell>
        <mxCell id="oAbuL4uF9CSUd4GpwNxf-73" style="edgeStyle=orthogonalEdgeStyle;rounded=0;orthogonalLoop=1;jettySize=auto;html=1;entryX=0;entryY=0.5;entryDx=0;entryDy=0;entryPerimeter=0;" parent="dNxyNK7c78bLwvsdeMH5-21" source="oAbuL4uF9CSUd4GpwNxf-3" target="oAbuL4uF9CSUd4GpwNxf-54" edge="1">
          <mxGeometry relative="1" as="geometry">
            <Array as="points">
              <mxPoint x="134" y="30" />
              <mxPoint x="360" y="30" />
              <mxPoint x="360" y="68" />
            </Array>
            <mxPoint x="134" y="38" as="sourcePoint" />
            <mxPoint x="374" y="63" as="targetPoint" />
          </mxGeometry>
        </mxCell>
        <mxCell id="oAbuL4uF9CSUd4GpwNxf-3" value="scheme plan?" style="points=[[0.25,0.25,0],[0.5,0,0],[0.75,0.25,0],[1,0.5,0],[0.75,0.75,0],[0.5,1,0],[0.25,0.75,0],[0,0.5,0]];shape=mxgraph.bpmn.gateway2;html=1;verticalLabelPosition=bottom;labelBackgroundColor=#ffffff;verticalAlign=top;align=center;perimeter=rhombusPerimeter;outlineConnect=0;outline=none;symbol=none;gwType=exclusive;spacing=1;whiteSpace=wrap;fillColor=none;" parent="dNxyNK7c78bLwvsdeMH5-21" vertex="1">
          <mxGeometry x="109" y="43" width="50" height="50" as="geometry" />
        </mxCell>
        <mxCell id="oAbuL4uF9CSUd4GpwNxf-60" style="edgeStyle=orthogonalEdgeStyle;rounded=0;orthogonalLoop=1;jettySize=auto;html=1;exitX=1;exitY=0.5;exitDx=0;exitDy=0;exitPerimeter=0;entryX=0;entryY=0.5;entryDx=0;entryDy=0;entryPerimeter=0;" parent="dNxyNK7c78bLwvsdeMH5-21" source="0XzqlYwr_3qjhGJwZqzh-64" target="oAbuL4uF9CSUd4GpwNxf-59" edge="1">
          <mxGeometry relative="1" as="geometry">
            <mxPoint x="310.0000000000002" y="68" as="sourcePoint" />
          </mxGeometry>
        </mxCell>
        <mxCell id="oAbuL4uF9CSUd4GpwNxf-196" style="edgeStyle=orthogonalEdgeStyle;rounded=0;orthogonalLoop=1;jettySize=auto;html=1;exitX=1;exitY=0.5;exitDx=0;exitDy=0;exitPerimeter=0;entryX=0;entryY=0.5;entryDx=0;entryDy=0;entryPerimeter=0;" parent="dNxyNK7c78bLwvsdeMH5-21" source="oAbuL4uF9CSUd4GpwNxf-54" target="oAbuL4uF9CSUd4GpwNxf-194" edge="1">
          <mxGeometry relative="1" as="geometry" />
        </mxCell>
        <mxCell id="oAbuL4uF9CSUd4GpwNxf-54" value="layout design request" style="points=[[0.145,0.145,0],[0.5,0,0],[0.855,0.145,0],[1,0.5,0],[0.855,0.855,0],[0.5,1,0],[0.145,0.855,0],[0,0.5,0]];shape=mxgraph.bpmn.event;html=1;verticalLabelPosition=bottom;labelBackgroundColor=#ffffff;verticalAlign=top;align=center;perimeter=ellipsePerimeter;outlineConnect=0;aspect=fixed;outline=throwing;symbol=message;whiteSpace=wrap;spacing=1;fillColor=none;" parent="dNxyNK7c78bLwvsdeMH5-21" vertex="1">
          <mxGeometry x="374" y="43" width="50" height="50" as="geometry" />
        </mxCell>
        <mxCell id="oAbuL4uF9CSUd4GpwNxf-70" style="edgeStyle=orthogonalEdgeStyle;rounded=0;orthogonalLoop=1;jettySize=auto;html=1;exitX=1;exitY=0.5;exitDx=0;exitDy=0;exitPerimeter=0;entryX=0;entryY=0.5;entryDx=0;entryDy=0;entryPerimeter=0;" parent="dNxyNK7c78bLwvsdeMH5-21" source="oAbuL4uF9CSUd4GpwNxf-59" target="oAbuL4uF9CSUd4GpwNxf-66" edge="1">
          <mxGeometry relative="1" as="geometry" />
        </mxCell>
        <mxCell id="oAbuL4uF9CSUd4GpwNxf-59" value="transform sequence request" style="points=[[0.145,0.145,0],[0.5,0,0],[0.855,0.145,0],[1,0.5,0],[0.855,0.855,0],[0.5,1,0],[0.145,0.855,0],[0,0.5,0]];shape=mxgraph.bpmn.event;html=1;verticalLabelPosition=bottom;labelBackgroundColor=#ffffff;verticalAlign=top;align=center;perimeter=ellipsePerimeter;outlineConnect=0;aspect=fixed;outline=throwing;symbol=message;whiteSpace=wrap;spacing=1;fillColor=none;" parent="dNxyNK7c78bLwvsdeMH5-21" vertex="1">
          <mxGeometry x="242.99999999999994" y="43" width="50" height="50" as="geometry" />
        </mxCell>
        <mxCell id="oAbuL4uF9CSUd4GpwNxf-72" style="edgeStyle=orthogonalEdgeStyle;rounded=0;orthogonalLoop=1;jettySize=auto;html=1;exitX=1;exitY=0.5;exitDx=0;exitDy=0;exitPerimeter=0;entryX=0;entryY=0.5;entryDx=0;entryDy=0;entryPerimeter=0;" parent="dNxyNK7c78bLwvsdeMH5-21" source="oAbuL4uF9CSUd4GpwNxf-66" target="oAbuL4uF9CSUd4GpwNxf-54" edge="1">
          <mxGeometry relative="1" as="geometry" />
        </mxCell>
        <mxCell id="oAbuL4uF9CSUd4GpwNxf-66" value="transform sequence response" style="points=[[0.145,0.145,0],[0.5,0,0],[0.855,0.145,0],[1,0.5,0],[0.855,0.855,0],[0.5,1,0],[0.145,0.855,0],[0,0.5,0]];shape=mxgraph.bpmn.event;html=1;verticalLabelPosition=bottom;labelBackgroundColor=#ffffff;verticalAlign=top;align=center;perimeter=ellipsePerimeter;outlineConnect=0;aspect=fixed;outline=catching;symbol=message;whiteSpace=wrap;spacing=1;fillColor=none;" parent="dNxyNK7c78bLwvsdeMH5-21" vertex="1">
          <mxGeometry x="304" y="43" width="50" height="50" as="geometry" />
        </mxCell>
        <mxCell id="oAbuL4uF9CSUd4GpwNxf-198" style="edgeStyle=orthogonalEdgeStyle;rounded=0;orthogonalLoop=1;jettySize=auto;html=1;exitX=1;exitY=0.5;exitDx=0;exitDy=0;exitPerimeter=0;entryX=0;entryY=0.5;entryDx=0;entryDy=0;entryPerimeter=0;" parent="dNxyNK7c78bLwvsdeMH5-21" source="oAbuL4uF9CSUd4GpwNxf-194" target="oAbuL4uF9CSUd4GpwNxf-202" edge="1">
          <mxGeometry relative="1" as="geometry">
            <mxPoint x="502" y="68" as="targetPoint" />
          </mxGeometry>
        </mxCell>
        <mxCell id="oAbuL4uF9CSUd4GpwNxf-194" value="layout design response" style="points=[[0.145,0.145,0],[0.5,0,0],[0.855,0.145,0],[1,0.5,0],[0.855,0.855,0],[0.5,1,0],[0.145,0.855,0],[0,0.5,0]];shape=mxgraph.bpmn.event;html=1;verticalLabelPosition=bottom;labelBackgroundColor=#ffffff;verticalAlign=top;align=center;perimeter=ellipsePerimeter;outlineConnect=0;aspect=fixed;outline=catching;symbol=message;whiteSpace=wrap;spacing=1;fillColor=none;" parent="dNxyNK7c78bLwvsdeMH5-21" vertex="1">
          <mxGeometry x="437" y="43" width="50" height="50" as="geometry" />
        </mxCell>
        <mxCell id="oAbuL4uF9CSUd4GpwNxf-202" value="design response" style="points=[[0.145,0.145,0],[0.5,0,0],[0.855,0.145,0],[1,0.5,0],[0.855,0.855,0],[0.5,1,0],[0.145,0.855,0],[0,0.5,0]];shape=mxgraph.bpmn.event;html=1;verticalLabelPosition=bottom;labelBackgroundColor=#ffffff;verticalAlign=top;align=center;perimeter=ellipsePerimeter;outlineConnect=0;aspect=fixed;outline=throwing;symbol=message;whiteSpace=wrap;spacing=1;fillColor=none;" parent="dNxyNK7c78bLwvsdeMH5-21" vertex="1">
          <mxGeometry x="500" y="43" width="50" height="50" as="geometry" />
        </mxCell>
        <mxCell id="0XzqlYwr_3qjhGJwZqzh-67" value="" style="group" vertex="1" connectable="0" parent="dNxyNK7c78bLwvsdeMH5-21">
          <mxGeometry x="168" y="51" width="62" height="53" as="geometry" />
        </mxCell>
        <mxCell id="0XzqlYwr_3qjhGJwZqzh-64" value="solve script" style="points=[[0.25,0,0],[0.5,0,0],[0.75,0,0],[1,0.25,0],[1,0.5,0],[1,0.75,0],[0.75,1,0],[0.5,1,0],[0.25,1,0],[0,0.75,0],[0,0.5,0],[0,0.25,0]];shape=mxgraph.bpmn.task;whiteSpace=wrap;rectStyle=rounded;size=10;html=1;container=1;expand=0;collapsible=0;bpmnShapeType=call;taskMarker=service;align=right;verticalAlign=middle;spacingRight=2;spacingBottom=2;" vertex="1" parent="0XzqlYwr_3qjhGJwZqzh-67">
          <mxGeometry x="10" width="52" height="33" as="geometry" />
        </mxCell>
        <mxCell id="0XzqlYwr_3qjhGJwZqzh-65" value="scheme" style="html=1;shape=mxgraph.flowchart.annotation_2;align=left;labelPosition=right;" vertex="1" parent="0XzqlYwr_3qjhGJwZqzh-67">
          <mxGeometry y="38" width="10" height="13" as="geometry" />
        </mxCell>
        <mxCell id="0XzqlYwr_3qjhGJwZqzh-66" value="" style="edgeStyle=elbowEdgeStyle;fontSize=12;html=1;endFill=0;startFill=0;endSize=6;startSize=6;dashed=1;dashPattern=1 4;endArrow=none;startArrow=none;rounded=0;exitX=0;exitY=0.75;exitDx=0;exitDy=0;exitPerimeter=0;entryX=0;entryY=0.5;entryDx=0;entryDy=0;entryPerimeter=0;" edge="1" parent="0XzqlYwr_3qjhGJwZqzh-67" source="0XzqlYwr_3qjhGJwZqzh-64" target="0XzqlYwr_3qjhGJwZqzh-65">
          <mxGeometry width="160" relative="1" as="geometry">
            <mxPoint x="389" y="113" as="sourcePoint" />
            <mxPoint x="394" y="124" as="targetPoint" />
            <Array as="points">
              <mxPoint y="43" />
              <mxPoint x="10" y="43" />
              <mxPoint y="43" />
              <mxPoint x="36" y="53" />
            </Array>
          </mxGeometry>
        </mxCell>
        <mxCell id="dNxyNK7c78bLwvsdeMH5-22" value="gateway service" style="swimlane;html=1;startSize=20;horizontal=0;strokeWidth=1;fontStyle=1;spacing=1;fillColor=none;" parent="dNxyNK7c78bLwvsdeMH5-19" vertex="1">
          <mxGeometry x="20" y="530" width="570" height="120" as="geometry" />
        </mxCell>
        <mxCell id="a2iPl4jCiyBmBNZjARmk-40" style="edgeStyle=orthogonalEdgeStyle;rounded=0;orthogonalLoop=1;jettySize=auto;html=1;exitX=1;exitY=0.5;exitDx=0;exitDy=0;exitPerimeter=0;entryX=0;entryY=0.5;entryDx=0;entryDy=0;entryPerimeter=0;spacing=1;fillColor=none;" parent="dNxyNK7c78bLwvsdeMH5-22" source="a2iPl4jCiyBmBNZjARmk-37" target="a2iPl4jCiyBmBNZjARmk-39" edge="1">
          <mxGeometry relative="1" as="geometry" />
        </mxCell>
        <mxCell id="a2iPl4jCiyBmBNZjARmk-37" value="check user authentication" style="points=[[0.25,0,0],[0.5,0,0],[0.75,0,0],[1,0.25,0],[1,0.5,0],[1,0.75,0],[0.75,1,0],[0.5,1,0],[0.25,1,0],[0,0.75,0],[0,0.5,0],[0,0.25,0]];shape=mxgraph.bpmn.task;whiteSpace=wrap;rectStyle=rounded;size=10;html=1;container=1;expand=0;collapsible=0;taskMarker=businessRule;align=right;spacing=1;fillColor=none;" parent="dNxyNK7c78bLwvsdeMH5-22" vertex="1">
          <mxGeometry x="112" y="23" width="90" height="40" as="geometry" />
        </mxCell>
        <mxCell id="a2iPl4jCiyBmBNZjARmk-46" style="edgeStyle=orthogonalEdgeStyle;rounded=0;orthogonalLoop=1;jettySize=auto;html=1;exitX=1;exitY=0.5;exitDx=0;exitDy=0;exitPerimeter=0;entryX=0;entryY=0.5;entryDx=0;entryDy=0;entryPerimeter=0;spacing=1;fillColor=none;" parent="dNxyNK7c78bLwvsdeMH5-22" source="a2iPl4jCiyBmBNZjARmk-39" target="gOrIEBcR2SbTjTZqUZHp-70" edge="1">
          <mxGeometry relative="1" as="geometry">
            <mxPoint x="235" y="18" as="sourcePoint" />
            <mxPoint x="267" y="-2" as="targetPoint" />
            <Array as="points">
              <mxPoint x="270" y="43" />
              <mxPoint x="270" y="43" />
            </Array>
          </mxGeometry>
        </mxCell>
        <mxCell id="a2iPl4jCiyBmBNZjARmk-47" value="yes" style="edgeLabel;html=1;align=center;verticalAlign=middle;resizable=0;points=[];spacing=1;fillColor=none;" parent="a2iPl4jCiyBmBNZjARmk-46" vertex="1" connectable="0">
          <mxGeometry x="-0.1026" y="3" relative="1" as="geometry">
            <mxPoint x="-2" y="-9" as="offset" />
          </mxGeometry>
        </mxCell>
        <mxCell id="gOrIEBcR2SbTjTZqUZHp-56" style="edgeStyle=orthogonalEdgeStyle;rounded=0;orthogonalLoop=1;jettySize=auto;html=1;entryX=0.5;entryY=0;entryDx=0;entryDy=0;entryPerimeter=0;fillColor=none;exitX=0.5;exitY=0;exitDx=0;exitDy=0;exitPerimeter=0;" parent="dNxyNK7c78bLwvsdeMH5-22" source="a2iPl4jCiyBmBNZjARmk-39" target="gOrIEBcR2SbTjTZqUZHp-54" edge="1">
          <mxGeometry relative="1" as="geometry">
            <mxPoint x="244" y="21" as="sourcePoint" />
            <mxPoint x="511.9999999999999" y="21" as="targetPoint" />
            <Array as="points">
              <mxPoint x="244" y="6" />
              <mxPoint x="512" y="6" />
            </Array>
          </mxGeometry>
        </mxCell>
        <mxCell id="gOrIEBcR2SbTjTZqUZHp-57" value="no" style="edgeLabel;html=1;align=center;verticalAlign=middle;resizable=0;points=[];fillColor=none;labelBackgroundColor=none;" parent="gOrIEBcR2SbTjTZqUZHp-56" vertex="1" connectable="0">
          <mxGeometry x="-0.2504" y="1" relative="1" as="geometry">
            <mxPoint x="-85" y="6" as="offset" />
          </mxGeometry>
        </mxCell>
        <mxCell id="a2iPl4jCiyBmBNZjARmk-39" value="authorized?" style="points=[[0.25,0.25,0],[0.5,0,0],[0.75,0.25,0],[1,0.5,0],[0.75,0.75,0],[0.5,1,0],[0.25,0.75,0],[0,0.5,0]];shape=mxgraph.bpmn.gateway2;html=1;verticalLabelPosition=bottom;labelBackgroundColor=#ffffff;verticalAlign=top;align=center;perimeter=rhombusPerimeter;outlineConnect=0;outline=none;symbol=none;gwType=exclusive;spacing=1;fillColor=none;" parent="dNxyNK7c78bLwvsdeMH5-22" vertex="1">
          <mxGeometry x="216" y="18" width="50" height="50" as="geometry" />
        </mxCell>
        <mxCell id="gOrIEBcR2SbTjTZqUZHp-54" value="design request denied" style="points=[[0.145,0.145,0],[0.5,0,0],[0.855,0.145,0],[1,0.5,0],[0.855,0.855,0],[0.5,1,0],[0.145,0.855,0],[0,0.5,0]];shape=mxgraph.bpmn.event;html=1;verticalLabelPosition=bottom;labelBackgroundColor=none;verticalAlign=top;align=center;perimeter=ellipsePerimeter;outlineConnect=0;aspect=fixed;outline=end;symbol=cancel;fillColor=none;whiteSpace=wrap;" parent="dNxyNK7c78bLwvsdeMH5-22" vertex="1">
          <mxGeometry x="467" y="17" width="50" height="50" as="geometry" />
        </mxCell>
        <mxCell id="oAbuL4uF9CSUd4GpwNxf-30" style="edgeStyle=orthogonalEdgeStyle;rounded=0;orthogonalLoop=1;jettySize=auto;html=1;exitX=1;exitY=0.5;exitDx=0;exitDy=0;exitPerimeter=0;entryX=0;entryY=0.5;entryDx=0;entryDy=0;entryPerimeter=0;" parent="dNxyNK7c78bLwvsdeMH5-22" source="gOrIEBcR2SbTjTZqUZHp-70" target="oAbuL4uF9CSUd4GpwNxf-29" edge="1">
          <mxGeometry relative="1" as="geometry" />
        </mxCell>
        <mxCell id="gOrIEBcR2SbTjTZqUZHp-70" value="design request" style="points=[[0.145,0.145,0],[0.5,0,0],[0.855,0.145,0],[1,0.5,0],[0.855,0.855,0],[0.5,1,0],[0.145,0.855,0],[0,0.5,0]];shape=mxgraph.bpmn.event;html=1;verticalLabelPosition=bottom;labelBackgroundColor=#ffffff;verticalAlign=top;align=center;perimeter=ellipsePerimeter;outlineConnect=0;aspect=fixed;outline=throwing;symbol=message;spacing=1;whiteSpace=wrap;fillColor=none;" parent="dNxyNK7c78bLwvsdeMH5-22" vertex="1">
          <mxGeometry x="278" y="18" width="50" height="50" as="geometry" />
        </mxCell>
        <mxCell id="oAbuL4uF9CSUd4GpwNxf-29" value="design response" style="points=[[0.145,0.145,0],[0.5,0,0],[0.855,0.145,0],[1,0.5,0],[0.855,0.855,0],[0.5,1,0],[0.145,0.855,0],[0,0.5,0]];shape=mxgraph.bpmn.event;html=1;verticalLabelPosition=bottom;labelBackgroundColor=#ffffff;verticalAlign=top;align=center;perimeter=ellipsePerimeter;outlineConnect=0;aspect=fixed;outline=catching;symbol=message;whiteSpace=wrap;spacing=1;fillColor=none;" parent="dNxyNK7c78bLwvsdeMH5-22" vertex="1">
          <mxGeometry x="340.99999999999994" y="18" width="50" height="50" as="geometry" />
        </mxCell>
        <mxCell id="oAbuL4uF9CSUd4GpwNxf-50" style="edgeStyle=orthogonalEdgeStyle;rounded=0;orthogonalLoop=1;jettySize=auto;html=1;exitX=1;exitY=0.5;exitDx=0;exitDy=0;exitPerimeter=0;entryX=0;entryY=0.5;entryDx=0;entryDy=0;entryPerimeter=0;" parent="dNxyNK7c78bLwvsdeMH5-22" source="oAbuL4uF9CSUd4GpwNxf-49" target="a2iPl4jCiyBmBNZjARmk-37" edge="1">
          <mxGeometry relative="1" as="geometry" />
        </mxCell>
        <mxCell id="oAbuL4uF9CSUd4GpwNxf-49" value="design request" style="points=[[0.145,0.145,0],[0.5,0,0],[0.855,0.145,0],[1,0.5,0],[0.855,0.855,0],[0.5,1,0],[0.145,0.855,0],[0,0.5,0]];shape=mxgraph.bpmn.event;html=1;verticalLabelPosition=bottom;labelBackgroundColor=#ffffff;verticalAlign=top;align=center;perimeter=ellipsePerimeter;outlineConnect=0;aspect=fixed;outline=catching;symbol=message;whiteSpace=wrap;spacing=1;fillColor=none;" parent="dNxyNK7c78bLwvsdeMH5-22" vertex="1">
          <mxGeometry x="49.99999999999994" y="19" width="50" height="50" as="geometry" />
        </mxCell>
        <mxCell id="oAbuL4uF9CSUd4GpwNxf-51" style="edgeStyle=orthogonalEdgeStyle;rounded=0;orthogonalLoop=1;jettySize=auto;html=1;exitX=1;exitY=0.5;exitDx=0;exitDy=0;exitPerimeter=0;entryX=0;entryY=0.5;entryDx=0;entryDy=0;entryPerimeter=0;" parent="dNxyNK7c78bLwvsdeMH5-22" source="oAbuL4uF9CSUd4GpwNxf-29" target="oAbuL4uF9CSUd4GpwNxf-204" edge="1">
          <mxGeometry relative="1" as="geometry">
            <mxPoint x="425" y="44" as="targetPoint" />
          </mxGeometry>
        </mxCell>
        <mxCell id="oAbuL4uF9CSUd4GpwNxf-204" value="design response" style="points=[[0.145,0.145,0],[0.5,0,0],[0.855,0.145,0],[1,0.5,0],[0.855,0.855,0],[0.5,1,0],[0.145,0.855,0],[0,0.5,0]];shape=mxgraph.bpmn.event;html=1;verticalLabelPosition=bottom;labelBackgroundColor=#ffffff;verticalAlign=top;align=center;perimeter=ellipsePerimeter;outlineConnect=0;aspect=fixed;outline=throwing;symbol=message;whiteSpace=wrap;spacing=1;fillColor=none;" parent="dNxyNK7c78bLwvsdeMH5-22" vertex="1">
          <mxGeometry x="404" y="18" width="50" height="50" as="geometry" />
        </mxCell>
        <mxCell id="gOrIEBcR2SbTjTZqUZHp-7" value="" style="dashed=1;dashPattern=8 4;endArrow=blockThin;endFill=1;startArrow=oval;startFill=0;endSize=6;startSize=4;html=1;rounded=0;exitX=0.5;exitY=0;exitDx=0;exitDy=0;exitPerimeter=0;entryX=0;entryY=0.5;entryDx=0;entryDy=0;entryPerimeter=0;edgeStyle=orthogonalEdgeStyle;spacing=1;fillColor=none;" parent="dNxyNK7c78bLwvsdeMH5-19" target="gOrIEBcR2SbTjTZqUZHp-22" edge="1">
          <mxGeometry width="160" relative="1" as="geometry">
            <mxPoint x="323" y="551" as="sourcePoint" />
            <mxPoint x="85" y="419.5" as="targetPoint" />
            <Array as="points">
              <mxPoint x="323" y="520" />
              <mxPoint x="50" y="520" />
              <mxPoint x="50" y="438" />
            </Array>
          </mxGeometry>
        </mxCell>
        <mxCell id="gOrIEBcR2SbTjTZqUZHp-77" value="" style="dashed=1;dashPattern=8 4;endArrow=blockThin;endFill=1;startArrow=oval;startFill=0;endSize=6;startSize=4;html=1;rounded=0;exitX=0.5;exitY=0;exitDx=0;exitDy=0;exitPerimeter=0;edgeStyle=orthogonalEdgeStyle;spacing=1;entryX=0;entryY=0.5;entryDx=0;entryDy=0;entryPerimeter=0;fillColor=none;" parent="dNxyNK7c78bLwvsdeMH5-19" source="gOrIEBcR2SbTjTZqUZHp-73" target="gOrIEBcR2SbTjTZqUZHp-30" edge="1">
          <mxGeometry width="160" relative="1" as="geometry">
            <mxPoint x="220" y="320" as="sourcePoint" />
            <mxPoint x="220" y="230" as="targetPoint" />
            <Array as="points">
              <mxPoint x="170" y="130" />
              <mxPoint x="50" y="130" />
              <mxPoint x="50" y="35" />
            </Array>
          </mxGeometry>
        </mxCell>
        <mxCell id="gOrIEBcR2SbTjTZqUZHp-81" value="" style="dashed=1;dashPattern=8 4;endArrow=blockThin;endFill=1;startArrow=oval;startFill=0;endSize=6;startSize=4;html=1;rounded=0;edgeStyle=orthogonalEdgeStyle;spacing=1;exitX=1;exitY=0.5;exitDx=0;exitDy=0;exitPerimeter=0;entryX=0.5;entryY=0;entryDx=0;entryDy=0;entryPerimeter=0;fillColor=none;" parent="dNxyNK7c78bLwvsdeMH5-19" source="gOrIEBcR2SbTjTZqUZHp-26" target="gOrIEBcR2SbTjTZqUZHp-79" edge="1">
          <mxGeometry width="160" relative="1" as="geometry">
            <mxPoint x="280" y="250" as="sourcePoint" />
            <mxPoint x="230" y="240" as="targetPoint" />
            <Array as="points">
              <mxPoint x="280" y="35" />
              <mxPoint x="280" y="110" />
              <mxPoint x="231" y="110" />
            </Array>
          </mxGeometry>
        </mxCell>
        <mxCell id="oAbuL4uF9CSUd4GpwNxf-62" value="" style="dashed=1;dashPattern=8 4;endArrow=blockThin;endFill=1;startArrow=oval;startFill=0;endSize=6;startSize=4;html=1;rounded=0;exitX=0.5;exitY=0;exitDx=0;exitDy=0;exitPerimeter=0;edgeStyle=orthogonalEdgeStyle;spacing=1;entryX=0;entryY=0.5;entryDx=0;entryDy=0;entryPerimeter=0;fillColor=none;" parent="dNxyNK7c78bLwvsdeMH5-19" source="oAbuL4uF9CSUd4GpwNxf-59" target="oAbuL4uF9CSUd4GpwNxf-61" edge="1">
          <mxGeometry width="160" relative="1" as="geometry">
            <mxPoint x="702" y="427" as="sourcePoint" />
            <mxPoint x="75.00000000000011" y="305.5" as="targetPoint" />
            <Array as="points">
              <mxPoint x="288" y="390" />
              <mxPoint x="60" y="390" />
              <mxPoint x="60" y="292" />
            </Array>
          </mxGeometry>
        </mxCell>
        <mxCell id="oAbuL4uF9CSUd4GpwNxf-71" value="" style="dashed=1;dashPattern=8 4;endArrow=blockThin;endFill=1;startArrow=oval;startFill=0;endSize=6;startSize=4;html=1;rounded=0;edgeStyle=orthogonalEdgeStyle;spacing=1;exitX=1;exitY=0.5;exitDx=0;exitDy=0;exitPerimeter=0;entryX=0.5;entryY=0;entryDx=0;entryDy=0;entryPerimeter=0;fillColor=none;" parent="dNxyNK7c78bLwvsdeMH5-19" source="oAbuL4uF9CSUd4GpwNxf-67" target="oAbuL4uF9CSUd4GpwNxf-66" edge="1">
          <mxGeometry width="160" relative="1" as="geometry">
            <mxPoint x="518" y="296.5" as="sourcePoint" />
            <mxPoint x="315" y="416" as="targetPoint" />
            <Array as="points">
              <mxPoint x="460" y="289" />
              <mxPoint x="460" y="390" />
              <mxPoint x="349" y="390" />
            </Array>
          </mxGeometry>
        </mxCell>
        <mxCell id="oAbuL4uF9CSUd4GpwNxf-187" value="" style="dashed=1;dashPattern=8 4;endArrow=blockThin;endFill=1;startArrow=oval;startFill=0;endSize=6;startSize=4;html=1;rounded=0;exitX=0.5;exitY=0;exitDx=0;exitDy=0;exitPerimeter=0;edgeStyle=orthogonalEdgeStyle;spacing=1;entryX=0.25;entryY=1;entryDx=0;entryDy=0;entryPerimeter=0;fillColor=none;" parent="dNxyNK7c78bLwvsdeMH5-19" source="oAbuL4uF9CSUd4GpwNxf-184" target="oAbuL4uF9CSUd4GpwNxf-181" edge="1">
          <mxGeometry width="160" relative="1" as="geometry">
            <mxPoint x="349" y="51" as="sourcePoint" />
            <mxPoint x="246" y="-50" as="targetPoint" />
            <Array as="points">
              <mxPoint x="303" y="81" />
            </Array>
          </mxGeometry>
        </mxCell>
        <mxCell id="oAbuL4uF9CSUd4GpwNxf-188" value="" style="dashed=1;dashPattern=8 4;endArrow=blockThin;endFill=1;startArrow=oval;startFill=0;endSize=6;startSize=4;html=1;rounded=0;edgeStyle=orthogonalEdgeStyle;spacing=1;exitX=0.75;exitY=1;exitDx=0;exitDy=0;exitPerimeter=0;entryX=0.5;entryY=0;entryDx=0;entryDy=0;entryPerimeter=0;fillColor=none;" parent="dNxyNK7c78bLwvsdeMH5-19" source="oAbuL4uF9CSUd4GpwNxf-181" target="oAbuL4uF9CSUd4GpwNxf-185" edge="1">
          <mxGeometry width="160" relative="1" as="geometry">
            <mxPoint x="459" y="-60" as="sourcePoint" />
            <mxPoint x="438" y="40" as="targetPoint" />
            <Array as="points">
              <mxPoint x="345" y="100" />
              <mxPoint x="369" y="100" />
            </Array>
          </mxGeometry>
        </mxCell>
        <mxCell id="oAbuL4uF9CSUd4GpwNxf-199" value="" style="dashed=1;dashPattern=8 4;endArrow=blockThin;endFill=1;startArrow=oval;startFill=0;endSize=6;startSize=4;html=1;rounded=0;edgeStyle=orthogonalEdgeStyle;spacing=1;exitX=1;exitY=0.5;exitDx=0;exitDy=0;exitPerimeter=0;entryX=0.5;entryY=0;entryDx=0;entryDy=0;entryPerimeter=0;fillColor=none;" parent="dNxyNK7c78bLwvsdeMH5-19" target="oAbuL4uF9CSUd4GpwNxf-29" edge="1" source="oAbuL4uF9CSUd4GpwNxf-202">
          <mxGeometry width="160" relative="1" as="geometry">
            <mxPoint x="656" y="429" as="sourcePoint" />
            <mxPoint x="406" y="548" as="targetPoint" />
            <Array as="points">
              <mxPoint x="580" y="438" />
              <mxPoint x="580" y="520" />
              <mxPoint x="386" y="520" />
            </Array>
          </mxGeometry>
        </mxCell>
        <mxCell id="0XzqlYwr_3qjhGJwZqzh-68" value="" style="dashed=1;dashPattern=8 4;endArrow=blockThin;endFill=1;startArrow=oval;startFill=0;endSize=6;startSize=4;html=1;rounded=0;edgeStyle=orthogonalEdgeStyle;spacing=1;exitX=1;exitY=0.5;exitDx=0;exitDy=0;exitPerimeter=0;entryX=0.5;entryY=0;entryDx=0;entryDy=0;entryPerimeter=0;fillColor=none;" edge="1" parent="dNxyNK7c78bLwvsdeMH5-19" source="oAbuL4uF9CSUd4GpwNxf-190" target="oAbuL4uF9CSUd4GpwNxf-194">
          <mxGeometry width="160" relative="1" as="geometry">
            <mxPoint x="480" y="300" as="sourcePoint" />
            <mxPoint x="359" y="438" as="targetPoint" />
            <Array as="points">
              <mxPoint x="482" y="160" />
            </Array>
          </mxGeometry>
        </mxCell>
        <mxCell id="a2iPl4jCiyBmBNZjARmk-18" value="Designer" style="swimlane;html=1;startSize=20;fontStyle=1;collapsible=0;horizontal=0;swimlaneLine=1;swimlaneFillColor=#ffffff;strokeWidth=1;whiteSpace=wrap;spacing=1;fillColor=none;" parent="1" vertex="1">
          <mxGeometry x="73" y="660.8" width="520" height="110" as="geometry" />
        </mxCell>
        <mxCell id="gOrIEBcR2SbTjTZqUZHp-5" style="edgeStyle=orthogonalEdgeStyle;rounded=0;orthogonalLoop=1;jettySize=auto;html=1;exitX=1;exitY=0.5;exitDx=0;exitDy=0;exitPerimeter=0;entryX=0;entryY=0.5;entryDx=0;entryDy=0;entryPerimeter=0;spacing=1;fillColor=none;" parent="a2iPl4jCiyBmBNZjARmk-18" source="a2iPl4jCiyBmBNZjARmk-24" target="gOrIEBcR2SbTjTZqUZHp-3" edge="1">
          <mxGeometry relative="1" as="geometry" />
        </mxCell>
        <mxCell id="a2iPl4jCiyBmBNZjARmk-24" value="designs" style="points=[[0.25,0,0],[0.5,0,0],[0.75,0,0],[1,0.25,0],[1,0.5,0],[1,0.75,0],[0.75,1,0],[0.5,1,0],[0.25,1,0],[0,0.75,0],[0,0.5,0],[0,0.25,0]];shape=mxgraph.bpmn.task;whiteSpace=wrap;rectStyle=rounded;size=10;html=1;container=1;expand=0;collapsible=0;taskMarker=user;align=right;spacing=1;fillColor=none;" parent="a2iPl4jCiyBmBNZjARmk-18" vertex="1">
          <mxGeometry x="91" y="30.75" width="68.5" height="32.5" as="geometry" />
        </mxCell>
        <mxCell id="gOrIEBcR2SbTjTZqUZHp-4" style="edgeStyle=orthogonalEdgeStyle;rounded=0;orthogonalLoop=1;jettySize=auto;html=1;exitX=1;exitY=0.5;exitDx=0;exitDy=0;exitPerimeter=0;entryX=0;entryY=0.5;entryDx=0;entryDy=0;entryPerimeter=0;spacing=1;fillColor=none;" parent="a2iPl4jCiyBmBNZjARmk-18" source="a2iPl4jCiyBmBNZjARmk-25" target="a2iPl4jCiyBmBNZjARmk-24" edge="1">
          <mxGeometry relative="1" as="geometry" />
        </mxCell>
        <mxCell id="a2iPl4jCiyBmBNZjARmk-25" value="starts designing" style="points=[[0.145,0.145,0],[0.5,0,0],[0.855,0.145,0],[1,0.5,0],[0.855,0.855,0],[0.5,1,0],[0.145,0.855,0],[0,0.5,0]];shape=mxgraph.bpmn.event;html=1;verticalLabelPosition=bottom;labelBackgroundColor=#ffffff;verticalAlign=top;align=center;perimeter=ellipsePerimeter;outlineConnect=0;aspect=fixed;outline=standard;symbol=general;spacing=1;fillColor=none;whiteSpace=wrap;" parent="a2iPl4jCiyBmBNZjARmk-18" vertex="1">
          <mxGeometry x="27" y="22" width="50" height="50" as="geometry" />
        </mxCell>
        <mxCell id="oAbuL4uF9CSUd4GpwNxf-18" style="edgeStyle=orthogonalEdgeStyle;rounded=0;orthogonalLoop=1;jettySize=auto;html=1;exitX=1;exitY=0.5;exitDx=0;exitDy=0;exitPerimeter=0;entryX=0;entryY=0.5;entryDx=0;entryDy=0;entryPerimeter=0;fillColor=none;" parent="a2iPl4jCiyBmBNZjARmk-18" source="gOrIEBcR2SbTjTZqUZHp-3" target="oAbuL4uF9CSUd4GpwNxf-17" edge="1">
          <mxGeometry relative="1" as="geometry" />
        </mxCell>
        <mxCell id="gOrIEBcR2SbTjTZqUZHp-3" value="design request" style="points=[[0.145,0.145,0],[0.5,0,0],[0.855,0.145,0],[1,0.5,0],[0.855,0.855,0],[0.5,1,0],[0.145,0.855,0],[0,0.5,0]];shape=mxgraph.bpmn.event;html=1;verticalLabelPosition=bottom;labelBackgroundColor=#ffffff;verticalAlign=top;align=center;perimeter=ellipsePerimeter;outlineConnect=0;aspect=fixed;outline=throwing;symbol=message;spacing=1;whiteSpace=wrap;fillColor=none;" parent="a2iPl4jCiyBmBNZjARmk-18" vertex="1">
          <mxGeometry x="172" y="22" width="50" height="50" as="geometry" />
        </mxCell>
        <mxCell id="oAbuL4uF9CSUd4GpwNxf-27" style="edgeStyle=orthogonalEdgeStyle;rounded=0;orthogonalLoop=1;jettySize=auto;html=1;exitX=1;exitY=0.5;exitDx=0;exitDy=0;exitPerimeter=0;entryX=0;entryY=0.5;entryDx=0;entryDy=0;entryPerimeter=0;" parent="a2iPl4jCiyBmBNZjARmk-18" source="oAbuL4uF9CSUd4GpwNxf-16" target="oAbuL4uF9CSUd4GpwNxf-26" edge="1">
          <mxGeometry relative="1" as="geometry" />
        </mxCell>
        <mxCell id="oAbuL4uF9CSUd4GpwNxf-16" value="evaluates" style="points=[[0.25,0,0],[0.5,0,0],[0.75,0,0],[1,0.25,0],[1,0.5,0],[1,0.75,0],[0.75,1,0],[0.5,1,0],[0.25,1,0],[0,0.75,0],[0,0.5,0],[0,0.25,0]];shape=mxgraph.bpmn.task;whiteSpace=wrap;rectStyle=rounded;size=10;html=1;container=1;expand=0;collapsible=0;taskMarker=user;align=right;spacing=1;fillColor=none;" parent="a2iPl4jCiyBmBNZjARmk-18" vertex="1">
          <mxGeometry x="298" y="33.88" width="80" height="26.25" as="geometry" />
        </mxCell>
        <mxCell id="oAbuL4uF9CSUd4GpwNxf-19" style="edgeStyle=orthogonalEdgeStyle;rounded=0;orthogonalLoop=1;jettySize=auto;html=1;exitX=1;exitY=0.5;exitDx=0;exitDy=0;exitPerimeter=0;entryX=0;entryY=0.5;entryDx=0;entryDy=0;entryPerimeter=0;fillColor=none;" parent="a2iPl4jCiyBmBNZjARmk-18" source="oAbuL4uF9CSUd4GpwNxf-17" target="oAbuL4uF9CSUd4GpwNxf-16" edge="1">
          <mxGeometry relative="1" as="geometry" />
        </mxCell>
        <mxCell id="oAbuL4uF9CSUd4GpwNxf-17" value="design response" style="points=[[0.145,0.145,0],[0.5,0,0],[0.855,0.145,0],[1,0.5,0],[0.855,0.855,0],[0.5,1,0],[0.145,0.855,0],[0,0.5,0]];shape=mxgraph.bpmn.event;html=1;verticalLabelPosition=bottom;labelBackgroundColor=#ffffff;verticalAlign=top;align=center;perimeter=ellipsePerimeter;outlineConnect=0;aspect=fixed;outline=catching;symbol=message;whiteSpace=wrap;spacing=1;fillColor=none;" parent="a2iPl4jCiyBmBNZjARmk-18" vertex="1">
          <mxGeometry x="234.99999999999994" y="22" width="50" height="50" as="geometry" />
        </mxCell>
        <mxCell id="oAbuL4uF9CSUd4GpwNxf-25" value="ends designing" style="points=[[0.145,0.145,0],[0.5,0,0],[0.855,0.145,0],[1,0.5,0],[0.855,0.855,0],[0.5,1,0],[0.145,0.855,0],[0,0.5,0]];shape=mxgraph.bpmn.event;html=1;verticalLabelPosition=bottom;labelBackgroundColor=#ffffff;verticalAlign=top;align=center;perimeter=ellipsePerimeter;outlineConnect=0;aspect=fixed;outline=end;symbol=terminate2;whiteSpace=wrap;" parent="a2iPl4jCiyBmBNZjARmk-18" vertex="1">
          <mxGeometry x="460" y="22.01" width="50" height="50" as="geometry" />
        </mxCell>
        <mxCell id="oAbuL4uF9CSUd4GpwNxf-28" style="edgeStyle=orthogonalEdgeStyle;rounded=0;orthogonalLoop=1;jettySize=auto;html=1;exitX=0.5;exitY=0;exitDx=0;exitDy=0;exitPerimeter=0;entryX=0.75;entryY=0;entryDx=0;entryDy=0;entryPerimeter=0;" parent="a2iPl4jCiyBmBNZjARmk-18" source="oAbuL4uF9CSUd4GpwNxf-26" target="a2iPl4jCiyBmBNZjARmk-24" edge="1">
          <mxGeometry relative="1" as="geometry">
            <Array as="points">
              <mxPoint x="415" y="10" />
              <mxPoint x="142" y="10" />
            </Array>
          </mxGeometry>
        </mxCell>
        <mxCell id="oAbuL4uF9CSUd4GpwNxf-46" value="no" style="edgeLabel;html=1;align=center;verticalAlign=middle;resizable=0;points=[];labelBackgroundColor=none;" parent="oAbuL4uF9CSUd4GpwNxf-28" vertex="1" connectable="0">
          <mxGeometry x="-0.9391" relative="1" as="geometry">
            <mxPoint x="-8" y="2" as="offset" />
          </mxGeometry>
        </mxCell>
        <mxCell id="oAbuL4uF9CSUd4GpwNxf-45" style="edgeStyle=orthogonalEdgeStyle;rounded=0;orthogonalLoop=1;jettySize=auto;html=1;exitX=1;exitY=0.5;exitDx=0;exitDy=0;exitPerimeter=0;entryX=0;entryY=0.5;entryDx=0;entryDy=0;entryPerimeter=0;" parent="a2iPl4jCiyBmBNZjARmk-18" source="oAbuL4uF9CSUd4GpwNxf-26" target="oAbuL4uF9CSUd4GpwNxf-25" edge="1">
          <mxGeometry relative="1" as="geometry" />
        </mxCell>
        <mxCell id="oAbuL4uF9CSUd4GpwNxf-47" value="yes" style="edgeLabel;html=1;align=center;verticalAlign=middle;resizable=0;points=[];labelBackgroundColor=none;" parent="oAbuL4uF9CSUd4GpwNxf-45" vertex="1" connectable="0">
          <mxGeometry x="-0.298" y="-1" relative="1" as="geometry">
            <mxPoint x="1" y="-10" as="offset" />
          </mxGeometry>
        </mxCell>
        <mxCell id="oAbuL4uF9CSUd4GpwNxf-26" value="satisfied?" style="points=[[0.25,0.25,0],[0.5,0,0],[0.75,0.25,0],[1,0.5,0],[0.75,0.75,0],[0.5,1,0],[0.25,0.75,0],[0,0.5,0]];shape=mxgraph.bpmn.gateway2;html=1;verticalLabelPosition=bottom;labelBackgroundColor=#ffffff;verticalAlign=top;align=center;perimeter=rhombusPerimeter;outlineConnect=0;outline=none;symbol=none;gwType=exclusive;" parent="a2iPl4jCiyBmBNZjARmk-18" vertex="1">
          <mxGeometry x="390" y="22.009999999999998" width="50" height="50" as="geometry" />
        </mxCell>
        <mxCell id="a2iPl4jCiyBmBNZjARmk-48" value="" style="dashed=1;dashPattern=8 4;endArrow=blockThin;endFill=1;startArrow=oval;startFill=0;endSize=6;startSize=4;html=1;rounded=0;exitX=0.5;exitY=0;exitDx=0;exitDy=0;exitPerimeter=0;entryX=0;entryY=0.5;entryDx=0;entryDy=0;entryPerimeter=0;edgeStyle=orthogonalEdgeStyle;spacing=1;fillColor=none;" parent="1" source="gOrIEBcR2SbTjTZqUZHp-3" target="oAbuL4uF9CSUd4GpwNxf-49" edge="1">
          <mxGeometry width="160" relative="1" as="geometry">
            <mxPoint x="286" y="685" as="sourcePoint" />
            <mxPoint x="73" y="580" as="targetPoint" />
            <Array as="points">
              <mxPoint x="270" y="640" />
              <mxPoint x="53" y="640" />
              <mxPoint x="53" y="574" />
            </Array>
          </mxGeometry>
        </mxCell>
        <mxCell id="a2iPl4jCiyBmBNZjARmk-51" value="Common Data Environment" style="shape=datastore;html=1;labelPosition=center;verticalLabelPosition=bottom;align=center;verticalAlign=top;whiteSpace=wrap;spacing=1;fillColor=none;" parent="1" vertex="1">
          <mxGeometry x="3" y="667" width="60" height="55" as="geometry" />
        </mxCell>
        <mxCell id="gOrIEBcR2SbTjTZqUZHp-1" style="edgeStyle=orthogonalEdgeStyle;rounded=0;orthogonalLoop=1;jettySize=auto;html=1;entryX=0.5;entryY=0;entryDx=0;entryDy=0;startArrow=open;startFill=0;endArrow=open;endFill=0;dashed=1;dashPattern=1 4;spacing=1;fillColor=none;exitX=0.5;exitY=0;exitDx=0;exitDy=0;exitPerimeter=0;" parent="1" source="a2iPl4jCiyBmBNZjARmk-24" target="a2iPl4jCiyBmBNZjARmk-51" edge="1">
          <mxGeometry relative="1" as="geometry">
            <mxPoint x="260" y="678" as="sourcePoint" />
            <Array as="points">
              <mxPoint x="198" y="657" />
              <mxPoint x="33" y="657" />
            </Array>
          </mxGeometry>
        </mxCell>
        <mxCell id="gOrIEBcR2SbTjTZqUZHp-98" value="" style="dashed=1;dashPattern=8 4;endArrow=blockThin;endFill=1;startArrow=oval;startFill=0;endSize=6;startSize=4;html=1;rounded=0;edgeStyle=orthogonalEdgeStyle;spacing=1;exitX=1;exitY=0.5;exitDx=0;exitDy=0;exitPerimeter=0;fillColor=none;" parent="1" source="gOrIEBcR2SbTjTZqUZHp-95" edge="1">
          <mxGeometry width="160" relative="1" as="geometry">
            <mxPoint x="940.94" y="301.5" as="sourcePoint" />
            <mxPoint x="743" y="220" as="targetPoint" />
            <Array as="points">
              <mxPoint x="688" y="210" />
              <mxPoint x="733" y="210" />
            </Array>
          </mxGeometry>
        </mxCell>
        <mxCell id="gOrIEBcR2SbTjTZqUZHp-100" value="" style="dashed=1;dashPattern=8 4;endArrow=blockThin;endFill=1;startArrow=oval;startFill=0;endSize=6;startSize=4;html=1;rounded=0;edgeStyle=orthogonalEdgeStyle;spacing=1;entryX=1;entryY=0.5;entryDx=0;entryDy=0;entryPerimeter=0;fillColor=none;" parent="1" target="gOrIEBcR2SbTjTZqUZHp-94" edge="1">
          <mxGeometry width="160" relative="1" as="geometry">
            <mxPoint x="742" y="293" as="sourcePoint" />
            <mxPoint x="821.25" y="423.94000000000005" as="targetPoint" />
            <Array as="points">
              <mxPoint x="733" y="293" />
              <mxPoint x="733" y="289" />
            </Array>
          </mxGeometry>
        </mxCell>
        <mxCell id="oAbuL4uF9CSUd4GpwNxf-74" style="edgeStyle=orthogonalEdgeStyle;rounded=0;orthogonalLoop=1;jettySize=auto;html=1;exitX=1;exitY=0.5;exitDx=0;exitDy=0;exitPerimeter=0;entryX=0;entryY=0.5;entryDx=0;entryDy=0;entryPerimeter=0;" parent="1" source="gOrIEBcR2SbTjTZqUZHp-102" target="gOrIEBcR2SbTjTZqUZHp-73" edge="1">
          <mxGeometry relative="1" as="geometry" />
        </mxCell>
        <mxCell id="gOrIEBcR2SbTjTZqUZHp-102" value="layout design request" style="points=[[0.145,0.145,0],[0.5,0,0],[0.855,0.145,0],[1,0.5,0],[0.855,0.855,0],[0.5,1,0],[0.145,0.855,0],[0,0.5,0]];shape=mxgraph.bpmn.event;html=1;verticalLabelPosition=bottom;labelBackgroundColor=#ffffff;verticalAlign=top;align=center;perimeter=ellipsePerimeter;outlineConnect=0;aspect=fixed;outline=catching;symbol=message;whiteSpace=wrap;spacing=1;fillColor=none;" parent="1" vertex="1">
          <mxGeometry x="84" y="136" width="50" height="50" as="geometry" />
        </mxCell>
        <mxCell id="oAbuL4uF9CSUd4GpwNxf-53" value="" style="dashed=1;dashPattern=8 4;endArrow=blockThin;endFill=1;startArrow=oval;startFill=0;endSize=6;startSize=4;html=1;rounded=0;exitX=1;exitY=0.5;exitDx=0;exitDy=0;exitPerimeter=0;edgeStyle=orthogonalEdgeStyle;spacing=1;fillColor=none;entryX=0.5;entryY=0;entryDx=0;entryDy=0;entryPerimeter=0;" parent="1" source="oAbuL4uF9CSUd4GpwNxf-204" target="oAbuL4uF9CSUd4GpwNxf-17" edge="1">
          <mxGeometry width="160" relative="1" as="geometry">
            <mxPoint x="477" y="578" as="sourcePoint" />
            <mxPoint x="333" y="687.8" as="targetPoint" />
            <Array as="points">
              <mxPoint x="483" y="573" />
              <mxPoint x="483" y="656" />
              <mxPoint x="333" y="656" />
            </Array>
          </mxGeometry>
        </mxCell>
        <mxCell id="oAbuL4uF9CSUd4GpwNxf-58" value="" style="dashed=1;dashPattern=8 4;endArrow=blockThin;endFill=1;startArrow=oval;startFill=0;endSize=6;startSize=4;html=1;rounded=0;exitX=0.5;exitY=0;exitDx=0;exitDy=0;exitPerimeter=0;edgeStyle=orthogonalEdgeStyle;spacing=1;entryX=0;entryY=0.5;entryDx=0;entryDy=0;entryPerimeter=0;fillColor=none;" parent="1" source="oAbuL4uF9CSUd4GpwNxf-54" edge="1" target="gOrIEBcR2SbTjTZqUZHp-102">
          <mxGeometry width="160" relative="1" as="geometry">
            <mxPoint x="422" y="425" as="sourcePoint" />
            <mxPoint x="84" y="172" as="targetPoint" />
            <Array as="points">
              <mxPoint x="422" y="380" />
              <mxPoint x="53" y="380" />
              <mxPoint x="53" y="161" />
            </Array>
          </mxGeometry>
        </mxCell>
        <mxCell id="0XzqlYwr_3qjhGJwZqzh-107" value="manager service" style="swimlane;html=1;startSize=20;fontStyle=0;collapsible=0;horizontal=1;swimlaneLine=1;strokeWidth=1;swimlaneFillColor=#ffffff;whiteSpace=wrap;" vertex="1" parent="1">
          <mxGeometry x="603" width="170" height="710.25" as="geometry" />
        </mxCell>
        <mxCell id="gOrIEBcR2SbTjTZqUZHp-83" value="solve script" style="swimlane;html=1;startSize=20;fontStyle=0;collapsible=0;horizontal=1;swimlaneLine=1;strokeWidth=1;swimlaneFillColor=#ffffff;whiteSpace=wrap;fillColor=none;spacingTop=0;verticalAlign=middle;" parent="0XzqlYwr_3qjhGJwZqzh-107" vertex="1">
          <mxGeometry y="20" width="170" height="690" as="geometry" />
        </mxCell>
        <mxCell id="0XzqlYwr_3qjhGJwZqzh-98" style="edgeStyle=orthogonalEdgeStyle;rounded=0;orthogonalLoop=1;jettySize=auto;html=1;exitX=1;exitY=0.5;exitDx=0;exitDy=0;exitPerimeter=0;entryX=0;entryY=0.5;entryDx=0;entryDy=0;entryPerimeter=0;" edge="1" parent="gOrIEBcR2SbTjTZqUZHp-83" source="gOrIEBcR2SbTjTZqUZHp-93" target="gOrIEBcR2SbTjTZqUZHp-95">
          <mxGeometry relative="1" as="geometry" />
        </mxCell>
        <mxCell id="0XzqlYwr_3qjhGJwZqzh-117" value="no" style="edgeLabel;html=1;align=center;verticalAlign=middle;resizable=0;points=[];labelBackgroundColor=none;" vertex="1" connectable="0" parent="0XzqlYwr_3qjhGJwZqzh-98">
          <mxGeometry x="-0.1971" relative="1" as="geometry">
            <mxPoint y="-10" as="offset" />
          </mxGeometry>
        </mxCell>
        <mxCell id="0XzqlYwr_3qjhGJwZqzh-118" style="edgeStyle=orthogonalEdgeStyle;rounded=0;orthogonalLoop=1;jettySize=auto;html=1;exitX=0;exitY=0.5;exitDx=0;exitDy=0;exitPerimeter=0;entryX=0.5;entryY=0;entryDx=0;entryDy=0;entryPerimeter=0;" edge="1" parent="gOrIEBcR2SbTjTZqUZHp-83" source="gOrIEBcR2SbTjTZqUZHp-93" target="0XzqlYwr_3qjhGJwZqzh-79">
          <mxGeometry relative="1" as="geometry">
            <Array as="points">
              <mxPoint x="20" y="304" />
              <mxPoint x="20" y="370" />
              <mxPoint x="48" y="370" />
            </Array>
          </mxGeometry>
        </mxCell>
        <mxCell id="0XzqlYwr_3qjhGJwZqzh-119" value="yes" style="edgeLabel;html=1;align=center;verticalAlign=middle;resizable=0;points=[];labelBackgroundColor=none;" vertex="1" connectable="0" parent="0XzqlYwr_3qjhGJwZqzh-118">
          <mxGeometry x="-0.135" y="1" relative="1" as="geometry">
            <mxPoint x="-2" y="-61" as="offset" />
          </mxGeometry>
        </mxCell>
        <mxCell id="gOrIEBcR2SbTjTZqUZHp-93" value="in cache?" style="points=[[0.25,0.25,0],[0.5,0,0],[0.75,0.25,0],[1,0.5,0],[0.75,0.75,0],[0.5,1,0],[0.25,0.75,0],[0,0.5,0]];shape=mxgraph.bpmn.gateway2;html=1;verticalLabelPosition=bottom;labelBackgroundColor=#ffffff;verticalAlign=top;align=center;perimeter=rhombusPerimeter;outlineConnect=0;outline=none;symbol=none;gwType=exclusive;fillColor=none;" parent="gOrIEBcR2SbTjTZqUZHp-83" vertex="1">
          <mxGeometry x="23.499999999999943" y="279" width="50" height="50" as="geometry" />
        </mxCell>
        <mxCell id="gOrIEBcR2SbTjTZqUZHp-87" style="edgeStyle=orthogonalEdgeStyle;rounded=0;orthogonalLoop=1;jettySize=auto;html=1;exitX=0.5;exitY=0;exitDx=0;exitDy=0;exitPerimeter=0;fillColor=none;entryX=0.5;entryY=0;entryDx=0;entryDy=0;entryPerimeter=0;" parent="gOrIEBcR2SbTjTZqUZHp-83" source="0XzqlYwr_3qjhGJwZqzh-101" target="0XzqlYwr_3qjhGJwZqzh-70" edge="1">
          <mxGeometry relative="1" as="geometry">
            <Array as="points">
              <mxPoint x="42" y="30" />
              <mxPoint x="110" y="30" />
            </Array>
            <mxPoint x="42.059999999999945" y="43" as="sourcePoint" />
          </mxGeometry>
        </mxCell>
        <mxCell id="gOrIEBcR2SbTjTZqUZHp-95" value="script request" style="points=[[0.145,0.145,0],[0.5,0,0],[0.855,0.145,0],[1,0.5,0],[0.855,0.855,0],[0.5,1,0],[0.145,0.855,0],[0,0.5,0]];shape=mxgraph.bpmn.event;html=1;verticalLabelPosition=bottom;labelBackgroundColor=#ffffff;verticalAlign=top;align=center;perimeter=ellipsePerimeter;outlineConnect=0;aspect=fixed;outline=throwing;symbol=message;whiteSpace=wrap;spacing=1;fillColor=none;" parent="gOrIEBcR2SbTjTZqUZHp-83" vertex="1">
          <mxGeometry x="84.99999999999994" y="278.99999999999994" width="50" height="50" as="geometry" />
        </mxCell>
        <mxCell id="0XzqlYwr_3qjhGJwZqzh-86" style="edgeStyle=orthogonalEdgeStyle;rounded=0;orthogonalLoop=1;jettySize=auto;html=1;exitX=0;exitY=0.5;exitDx=0;exitDy=0;exitPerimeter=0;entryX=0.5;entryY=0;entryDx=0;entryDy=0;entryPerimeter=0;" edge="1" parent="gOrIEBcR2SbTjTZqUZHp-83" source="gOrIEBcR2SbTjTZqUZHp-94" target="0XzqlYwr_3qjhGJwZqzh-79">
          <mxGeometry relative="1" as="geometry">
            <Array as="points">
              <mxPoint x="48" y="389" />
            </Array>
          </mxGeometry>
        </mxCell>
        <mxCell id="0XzqlYwr_3qjhGJwZqzh-112" style="edgeStyle=orthogonalEdgeStyle;rounded=0;orthogonalLoop=1;jettySize=auto;html=1;exitX=1;exitY=0.5;exitDx=0;exitDy=0;exitPerimeter=0;entryX=1;entryY=0.5;entryDx=0;entryDy=0;entryPerimeter=0;" edge="1" parent="gOrIEBcR2SbTjTZqUZHp-83" source="0XzqlYwr_3qjhGJwZqzh-79" target="0XzqlYwr_3qjhGJwZqzh-100">
          <mxGeometry relative="1" as="geometry">
            <Array as="points">
              <mxPoint x="80" y="426" />
              <mxPoint x="80" y="470" />
              <mxPoint x="150" y="470" />
              <mxPoint x="150" y="601" />
            </Array>
          </mxGeometry>
        </mxCell>
        <mxCell id="gOrIEBcR2SbTjTZqUZHp-94" value="script response" style="points=[[0.145,0.145,0],[0.5,0,0],[0.855,0.145,0],[1,0.5,0],[0.855,0.855,0],[0.5,1,0],[0.145,0.855,0],[0,0.5,0]];shape=mxgraph.bpmn.event;html=1;verticalLabelPosition=bottom;labelBackgroundColor=#ffffff;verticalAlign=top;align=center;perimeter=ellipsePerimeter;outlineConnect=0;aspect=fixed;outline=catching;symbol=message;whiteSpace=wrap;spacing=1;fillColor=none;" parent="gOrIEBcR2SbTjTZqUZHp-83" vertex="1">
          <mxGeometry x="84.99999999999994" y="363.49999999999994" width="50" height="50" as="geometry" />
        </mxCell>
        <mxCell id="0XzqlYwr_3qjhGJwZqzh-73" style="edgeStyle=orthogonalEdgeStyle;rounded=0;orthogonalLoop=1;jettySize=auto;html=1;entryX=0.5;entryY=0;entryDx=0;entryDy=0;entryPerimeter=0;exitX=0;exitY=0.5;exitDx=0;exitDy=0;exitPerimeter=0;" edge="1" parent="gOrIEBcR2SbTjTZqUZHp-83" source="0XzqlYwr_3qjhGJwZqzh-70" target="0XzqlYwr_3qjhGJwZqzh-71">
          <mxGeometry relative="1" as="geometry">
            <Array as="points">
              <mxPoint x="80" y="68" />
            </Array>
          </mxGeometry>
        </mxCell>
        <mxCell id="0XzqlYwr_3qjhGJwZqzh-87" value="yes" style="edgeLabel;html=1;align=center;verticalAlign=middle;resizable=0;points=[];labelBackgroundColor=none;" vertex="1" connectable="0" parent="0XzqlYwr_3qjhGJwZqzh-73">
          <mxGeometry x="-0.5511" y="4" relative="1" as="geometry">
            <mxPoint x="-7" y="-16" as="offset" />
          </mxGeometry>
        </mxCell>
        <mxCell id="0XzqlYwr_3qjhGJwZqzh-82" style="edgeStyle=orthogonalEdgeStyle;rounded=0;orthogonalLoop=1;jettySize=auto;html=1;exitX=1;exitY=0.5;exitDx=0;exitDy=0;exitPerimeter=0;entryX=1;entryY=0.5;entryDx=0;entryDy=0;entryPerimeter=0;" edge="1" parent="gOrIEBcR2SbTjTZqUZHp-83" source="0XzqlYwr_3qjhGJwZqzh-70" target="0XzqlYwr_3qjhGJwZqzh-92">
          <mxGeometry relative="1" as="geometry">
            <Array as="points">
              <mxPoint x="140" y="68" />
              <mxPoint x="140" y="238" />
            </Array>
          </mxGeometry>
        </mxCell>
        <mxCell id="0XzqlYwr_3qjhGJwZqzh-88" value="no" style="edgeLabel;html=1;align=center;verticalAlign=middle;resizable=0;points=[];labelBackgroundColor=none;" vertex="1" connectable="0" parent="0XzqlYwr_3qjhGJwZqzh-82">
          <mxGeometry x="-0.7997" relative="1" as="geometry">
            <mxPoint y="-25" as="offset" />
          </mxGeometry>
        </mxCell>
        <mxCell id="0XzqlYwr_3qjhGJwZqzh-70" value="schemas?" style="points=[[0.25,0.25,0],[0.5,0,0],[0.75,0.25,0],[1,0.5,0],[0.75,0.75,0],[0.5,1,0],[0.25,0.75,0],[0,0.5,0]];shape=mxgraph.bpmn.gateway2;html=1;verticalLabelPosition=bottom;labelBackgroundColor=none;verticalAlign=top;align=center;perimeter=rhombusPerimeter;outlineConnect=0;outline=none;symbol=none;gwType=exclusive;fillColor=none;" vertex="1" parent="gOrIEBcR2SbTjTZqUZHp-83">
          <mxGeometry x="84.99999999999994" y="43" width="50" height="50" as="geometry" />
        </mxCell>
        <mxCell id="0XzqlYwr_3qjhGJwZqzh-95" style="edgeStyle=orthogonalEdgeStyle;rounded=0;orthogonalLoop=1;jettySize=auto;html=1;exitX=0.5;exitY=1;exitDx=0;exitDy=0;exitPerimeter=0;entryX=0.5;entryY=0;entryDx=0;entryDy=0;entryPerimeter=0;" edge="1" parent="gOrIEBcR2SbTjTZqUZHp-83" source="0XzqlYwr_3qjhGJwZqzh-71" target="0XzqlYwr_3qjhGJwZqzh-92">
          <mxGeometry relative="1" as="geometry">
            <Array as="points">
              <mxPoint x="80" y="200" />
              <mxPoint x="97" y="200" />
            </Array>
          </mxGeometry>
        </mxCell>
        <mxCell id="0XzqlYwr_3qjhGJwZqzh-71" value="assert parameters schema compliant" style="points=[[0.25,0,0],[0.5,0,0],[0.75,0,0],[1,0.25,0],[1,0.5,0],[1,0.75,0],[0.75,1,0],[0.5,1,0],[0.25,1,0],[0,0.75,0],[0,0.5,0],[0,0.25,0]];shape=mxgraph.bpmn.task;whiteSpace=wrap;rectStyle=rounded;size=10;html=1;container=1;expand=0;collapsible=0;taskMarker=service;spacing=1;fillColor=none;align=right;isLoopSub=0;verticalAlign=top;spacingRight=2;spacingBottom=13;isLoopMultiParallel=1;spacingTop=9;" vertex="1" parent="gOrIEBcR2SbTjTZqUZHp-83">
          <mxGeometry x="28.060000000000002" y="131" width="103.75" height="60" as="geometry" />
        </mxCell>
        <mxCell id="0XzqlYwr_3qjhGJwZqzh-83" value="" style="points=[[0.145,0.145,0],[0.5,0,0],[0.855,0.145,0],[1,0.5,0],[0.855,0.855,0],[0.5,1,0],[0.145,0.855,0],[0,0.5,0]];shape=mxgraph.bpmn.event;html=1;verticalLabelPosition=bottom;labelBackgroundColor=#ffffff;verticalAlign=top;align=center;perimeter=ellipsePerimeter;outlineConnect=0;aspect=fixed;outline=boundInt;symbol=error;" vertex="1" parent="0XzqlYwr_3qjhGJwZqzh-71">
          <mxGeometry x="6.213293674829166" y="42.946051571313454" width="31.97084945674792" height="31.97084945674792" as="geometry" />
        </mxCell>
        <mxCell id="0XzqlYwr_3qjhGJwZqzh-110" style="edgeStyle=orthogonalEdgeStyle;rounded=0;orthogonalLoop=1;jettySize=auto;html=1;exitX=0;exitY=0.5;exitDx=0;exitDy=0;exitPerimeter=0;entryX=0.5;entryY=0;entryDx=0;entryDy=0;entryPerimeter=0;" edge="1" parent="gOrIEBcR2SbTjTZqUZHp-83" source="0XzqlYwr_3qjhGJwZqzh-79" target="0XzqlYwr_3qjhGJwZqzh-84">
          <mxGeometry relative="1" as="geometry">
            <Array as="points">
              <mxPoint x="20" y="425" />
              <mxPoint x="20" y="472" />
              <mxPoint x="69" y="472" />
            </Array>
          </mxGeometry>
        </mxCell>
        <mxCell id="0XzqlYwr_3qjhGJwZqzh-79" value="schemas?" style="points=[[0.25,0.25,0],[0.5,0,0],[0.75,0.25,0],[1,0.5,0],[0.75,0.75,0],[0.5,1,0],[0.25,0.75,0],[0,0.5,0]];shape=mxgraph.bpmn.gateway2;html=1;verticalLabelPosition=bottom;labelBackgroundColor=#ffffff;verticalAlign=top;align=center;perimeter=rhombusPerimeter;outlineConnect=0;outline=none;symbol=none;gwType=exclusive;fillColor=none;" vertex="1" parent="gOrIEBcR2SbTjTZqUZHp-83">
          <mxGeometry x="23.5" y="400.5" width="50" height="50" as="geometry" />
        </mxCell>
        <mxCell id="0XzqlYwr_3qjhGJwZqzh-111" style="edgeStyle=orthogonalEdgeStyle;rounded=0;orthogonalLoop=1;jettySize=auto;html=1;exitX=0.5;exitY=1;exitDx=0;exitDy=0;exitPerimeter=0;entryX=0.5;entryY=0;entryDx=0;entryDy=0;entryPerimeter=0;" edge="1" parent="gOrIEBcR2SbTjTZqUZHp-83" source="0XzqlYwr_3qjhGJwZqzh-84" target="0XzqlYwr_3qjhGJwZqzh-100">
          <mxGeometry relative="1" as="geometry" />
        </mxCell>
        <mxCell id="0XzqlYwr_3qjhGJwZqzh-84" value="assert response schema compliant" style="points=[[0.25,0,0],[0.5,0,0],[0.75,0,0],[1,0.25,0],[1,0.5,0],[1,0.75,0],[0.75,1,0],[0.5,1,0],[0.25,1,0],[0,0.75,0],[0,0.5,0],[0,0.25,0]];shape=mxgraph.bpmn.task;whiteSpace=wrap;rectStyle=rounded;size=10;html=1;container=1;expand=0;collapsible=0;taskMarker=service;spacing=1;fillColor=none;align=right;isLoopSub=0;verticalAlign=top;spacingRight=2;spacingBottom=13;isLoopMultiParallel=1;spacingTop=9;" vertex="1" parent="gOrIEBcR2SbTjTZqUZHp-83">
          <mxGeometry x="17.06" y="486" width="103.75" height="60" as="geometry" />
        </mxCell>
        <mxCell id="0XzqlYwr_3qjhGJwZqzh-85" value="" style="points=[[0.145,0.145,0],[0.5,0,0],[0.855,0.145,0],[1,0.5,0],[0.855,0.855,0],[0.5,1,0],[0.145,0.855,0],[0,0.5,0]];shape=mxgraph.bpmn.event;html=1;verticalLabelPosition=bottom;labelBackgroundColor=#ffffff;verticalAlign=top;align=center;perimeter=ellipsePerimeter;outlineConnect=0;aspect=fixed;outline=boundInt;symbol=error;" vertex="1" parent="0XzqlYwr_3qjhGJwZqzh-84">
          <mxGeometry x="6.213293674829166" y="42.946051571313454" width="31.97084945674792" height="31.97084945674792" as="geometry" />
        </mxCell>
        <mxCell id="0XzqlYwr_3qjhGJwZqzh-96" style="edgeStyle=orthogonalEdgeStyle;rounded=0;orthogonalLoop=1;jettySize=auto;html=1;exitX=0.5;exitY=1;exitDx=0;exitDy=0;exitPerimeter=0;" edge="1" parent="gOrIEBcR2SbTjTZqUZHp-83" source="0XzqlYwr_3qjhGJwZqzh-92" target="gOrIEBcR2SbTjTZqUZHp-93">
          <mxGeometry relative="1" as="geometry">
            <mxPoint x="97" y="258" as="sourcePoint" />
            <mxPoint x="48.5" y="279" as="targetPoint" />
            <Array as="points">
              <mxPoint x="97" y="268" />
              <mxPoint x="49" y="268" />
            </Array>
          </mxGeometry>
        </mxCell>
        <mxCell id="0XzqlYwr_3qjhGJwZqzh-92" value="" style="points=[[0.25,0.25,0],[0.5,0,0],[0.75,0.25,0],[1,0.5,0],[0.75,0.75,0],[0.5,1,0],[0.25,0.75,0],[0,0.5,0]];shape=mxgraph.bpmn.gateway2;html=1;verticalLabelPosition=bottom;labelBackgroundColor=#ffffff;verticalAlign=top;align=center;perimeter=rhombusPerimeter;outlineConnect=0;outline=none;symbol=none;gwType=exclusive;fillColor=none;" vertex="1" parent="gOrIEBcR2SbTjTZqUZHp-83">
          <mxGeometry x="72" y="213" width="50" height="50" as="geometry" />
        </mxCell>
        <mxCell id="0XzqlYwr_3qjhGJwZqzh-99" value="not schema compiant" style="points=[[0.145,0.145,0],[0.5,0,0],[0.855,0.145,0],[1,0.5,0],[0.855,0.855,0],[0.5,1,0],[0.145,0.855,0],[0,0.5,0]];shape=mxgraph.bpmn.event;html=1;verticalLabelPosition=bottom;labelBackgroundColor=none;verticalAlign=top;align=center;perimeter=ellipsePerimeter;outlineConnect=0;aspect=fixed;outline=end;symbol=error;whiteSpace=wrap;" vertex="1" parent="gOrIEBcR2SbTjTZqUZHp-83">
          <mxGeometry x="17.06" y="580" width="50" height="50" as="geometry" />
        </mxCell>
        <mxCell id="0XzqlYwr_3qjhGJwZqzh-100" value="script response" style="points=[[0.145,0.145,0],[0.5,0,0],[0.855,0.145,0],[1,0.5,0],[0.855,0.855,0],[0.5,1,0],[0.145,0.855,0],[0,0.5,0]];shape=mxgraph.bpmn.event;html=1;verticalLabelPosition=bottom;labelBackgroundColor=#ffffff;verticalAlign=top;align=center;perimeter=ellipsePerimeter;outlineConnect=0;aspect=fixed;outline=end;symbol=message;whiteSpace=wrap;" vertex="1" parent="gOrIEBcR2SbTjTZqUZHp-83">
          <mxGeometry x="85" y="576" width="50" height="50" as="geometry" />
        </mxCell>
        <mxCell id="0XzqlYwr_3qjhGJwZqzh-101" value="script request" style="points=[[0.145,0.145,0],[0.5,0,0],[0.855,0.145,0],[1,0.5,0],[0.855,0.855,0],[0.5,1,0],[0.145,0.855,0],[0,0.5,0]];shape=mxgraph.bpmn.event;html=1;verticalLabelPosition=bottom;labelBackgroundColor=#ffffff;verticalAlign=top;align=center;perimeter=ellipsePerimeter;outlineConnect=0;aspect=fixed;outline=standard;symbol=message;whiteSpace=wrap;" vertex="1" parent="gOrIEBcR2SbTjTZqUZHp-83">
          <mxGeometry x="17.06" y="43" width="50" height="50" as="geometry" />
        </mxCell>
        <mxCell id="0XzqlYwr_3qjhGJwZqzh-108" style="edgeStyle=orthogonalEdgeStyle;rounded=0;orthogonalLoop=1;jettySize=auto;html=1;exitX=0.5;exitY=1;exitDx=0;exitDy=0;exitPerimeter=0;entryX=0.5;entryY=0;entryDx=0;entryDy=0;entryPerimeter=0;" edge="1" parent="gOrIEBcR2SbTjTZqUZHp-83" source="0XzqlYwr_3qjhGJwZqzh-83" target="0XzqlYwr_3qjhGJwZqzh-99">
          <mxGeometry relative="1" as="geometry">
            <mxPoint x="50.25871840320269" y="210.91690102806137" as="sourcePoint" />
            <Array as="points">
              <mxPoint x="50" y="230" />
              <mxPoint x="10" y="230" />
              <mxPoint x="10" y="570" />
              <mxPoint x="42" y="570" />
            </Array>
          </mxGeometry>
        </mxCell>
        <mxCell id="0XzqlYwr_3qjhGJwZqzh-109" style="edgeStyle=orthogonalEdgeStyle;rounded=0;orthogonalLoop=1;jettySize=auto;html=1;exitX=0.5;exitY=1;exitDx=0;exitDy=0;exitPerimeter=0;entryX=0.5;entryY=0;entryDx=0;entryDy=0;entryPerimeter=0;" edge="1" parent="gOrIEBcR2SbTjTZqUZHp-83" source="0XzqlYwr_3qjhGJwZqzh-85" target="0XzqlYwr_3qjhGJwZqzh-99">
          <mxGeometry relative="1" as="geometry" />
        </mxCell>
        <mxCell id="gOrIEBcR2SbTjTZqUZHp-86" style="edgeStyle=orthogonalEdgeStyle;rounded=0;orthogonalLoop=1;jettySize=auto;html=1;exitX=1;exitY=0.119;exitDx=0;exitDy=0;exitPerimeter=0;endArrow=none;endFill=0;fillColor=none;" parent="1" source="gOrIEBcR2SbTjTZqUZHp-85" edge="1">
          <mxGeometry relative="1" as="geometry">
            <mxPoint x="627" y="760" as="targetPoint" />
            <Array as="points">
              <mxPoint x="759" y="725" />
              <mxPoint x="769" y="725" />
              <mxPoint x="769" y="770" />
              <mxPoint x="627" y="770" />
            </Array>
          </mxGeometry>
        </mxCell>
        <mxCell id="gOrIEBcR2SbTjTZqUZHp-85" value="ADAPTER" style="swimlane;html=1;startSize=20;fontStyle=0;collapsible=0;horizontal=1;swimlaneLine=1;strokeWidth=1;swimlaneFillColor=#ffffff;whiteSpace=wrap;fillColor=none;" parent="1" vertex="1">
          <mxGeometry x="603" y="719" width="155.68" height="41" as="geometry" />
        </mxCell>
        <mxCell id="0XzqlYwr_3qjhGJwZqzh-115" value="" style="dashed=1;dashPattern=8 4;endArrow=blockThin;endFill=1;startArrow=oval;startFill=0;endSize=6;startSize=4;html=1;rounded=0;edgeStyle=orthogonalEdgeStyle;spacing=1;exitX=1;exitY=0.5;exitDx=0;exitDy=0;exitPerimeter=0;entryX=1;entryY=0.75;entryDx=0;entryDy=0;fillColor=none;" edge="1" parent="1" source="gOrIEBcR2SbTjTZqUZHp-95" target="gOrIEBcR2SbTjTZqUZHp-85">
          <mxGeometry width="160" relative="1" as="geometry">
            <mxPoint x="469" y="170" as="sourcePoint" />
            <mxPoint x="495" y="423" as="targetPoint" />
            <Array as="points">
              <mxPoint x="793" y="324" />
              <mxPoint x="793" y="750" />
              <mxPoint x="759" y="750" />
            </Array>
          </mxGeometry>
        </mxCell>
        <mxCell id="0XzqlYwr_3qjhGJwZqzh-116" value="" style="dashed=1;dashPattern=8 4;endArrow=blockThin;endFill=1;startArrow=oval;startFill=0;endSize=6;startSize=4;html=1;rounded=0;edgeStyle=orthogonalEdgeStyle;spacing=1;exitX=1;exitY=0.25;exitDx=0;exitDy=0;entryX=1;entryY=0.5;entryDx=0;entryDy=0;fillColor=none;entryPerimeter=0;" edge="1" parent="1" source="gOrIEBcR2SbTjTZqUZHp-85" target="gOrIEBcR2SbTjTZqUZHp-94">
          <mxGeometry width="160" relative="1" as="geometry">
            <mxPoint x="748" y="334" as="sourcePoint" />
            <mxPoint x="769" y="760" as="targetPoint" />
            <Array as="points">
              <mxPoint x="783" y="729" />
              <mxPoint x="783" y="408" />
            </Array>
          </mxGeometry>
        </mxCell>
      </root>
    </mxGraphModel>
  </diagram>
</mxfile>
